<svg xmlns="http://www.w3.org/2000/svg" viewBox="0 0 200 200"><defs><style>.cls-1{isolation:isolate;}.cls-2{fill:#137f3f;}.cls-3{fill:#31b404;}.cls-4,.cls-6{fill:#bb8130;}.cls-4{opacity:0.15;}.cls-4,.cls-5{mix-blend-mode:multiply;}.cls-5{opacity:0.39;}.cls-7{fill:#fff;opacity:0.37;}</style></defs><title>abono-organico</title><g class="cls-1"><g id="Capa_1" data-name="Capa 1"><path class="cls-2" d="M161.31,159.56c0-27.16-28.6-35.51-38.48-11.09-11.83-15.1-21.89,0-21.89,0,0-6.75-29.83-24.74-29.83,11.09l68,17.06Z"/><path class="cls-2" d="M121.24,120.73v27.74h3.17V120.58h0c-.17-38.13-36.57-37.19-50.65-41.2C76.86,82.21,73.28,119.14,121.24,120.73Zm-26.65-28c-4-2.37-6.89-3.91-6.89-3.91a37.93,37.93,0,0,1,8,1.94c1.15.42,2.42.84,3.69,1.44a37.91,37.91,0,0,1,4,1.93c1.36.7,2.69,1.55,4,2.4s2.62,1.88,3.88,2.88a43.9,43.9,0,0,1,3.49,3.31,28.27,28.27,0,0,1,2.92,3.56,20.49,20.49,0,0,1,2.25,3.62,18.57,18.57,0,0,1,1.52,3.45c.38,1.1.66,2.11.91,3s.23,1.73.31,2.39c.09.89.14,1.5.15,1.8h-.13c-.15-.28-.44-.83-.83-1.61-.29-.58-.64-1.29-1-2.1s-1-1.64-1.6-2.59a32.05,32.05,0,0,0-2-2.9,33.77,33.77,0,0,0-2.51-3.06,42.25,42.25,0,0,0-3-3.06c-1-1.05-2.22-2-3.3-3s-2.35-1.87-3.53-2.77-2.36-1.79-3.59-2.54-2.34-1.57-3.48-2.26S95.58,93.39,94.59,92.77Z"/><path class="cls-2" d="M160.37,89.49c-7,1.11-27.43,1.12-32.72,31.25C150.42,122.16,160.37,89.49,160.37,89.49Z"/><path class="cls-2" d="M126,94.33c.19-.86.4-1.79.57-2.77s.56-2,.81-3,.62-2.12.88-3.23a17.81,17.81,0,0,1,1-3.3c.37-1.08.75-2.17,1.13-3.24.21-.53.33-1.08.55-1.59l.71-1.49c.48-1,.86-1.94,1.28-2.85s1-1.66,1.44-2.42a15,15,0,0,1,1.36-2,12.36,12.36,0,0,1,1.16-1.49c.36-.37.61-.72.84-.92l.33-.3a8.1,8.1,0,0,0-1.58.79,10.18,10.18,0,0,0-1.66,1.18,11.45,11.45,0,0,0-1.92,1.76c-.63.7-1.32,1.47-2,2.32s-1.19,1.84-1.77,2.84a14.81,14.81,0,0,0-1.6,3.18l-1.31,3.4a19.64,19.64,0,0,0-.92,3.48c-.26,1.15-.43,2.3-.64,3.41a18.46,18.46,0,0,0-.41,3.2c0,1,0,2,0,2.89,0,1.19,0,2.23.07,3.11-13.64-28.71,11.54-37,19.44-40.84,0,0,9.86,32.63-18.46,41.05C125.43,96.58,125.69,95.53,126,94.33Z"/><path class="cls-3" d="M26,150.44s47.1-5.18,52.42-5.62,8.42-2.77,20.84,1.22c0,0,13,7.31,22.28,6.87,0,0,25.38-.89,26.27,4.21.49,2.79.25,4.82-1.88,6.32-4.39,3.09-13.08,3.55-13.08,3.55l-10.42,1.1s9,.14,10.21.23a58.24,58.24,0,0,0,8.3-.67c4.43-.66,9.42-7.76,12.3-8.64,0,0,7.54-12,11.53-11.09S171,149,168.52,153s-12,20.84-21.51,24.83-18.4,7.32-21.72,7.32-26.38-4.88-32.15-7.32c0,0-15.74-6.87-23-4.66s-26.83,8.43-26.83,8.43Z"/><path class="cls-4" d="M142.88,178.21c-11.73,2.38-17.73,5.78-29.23,2.94-6.3-1.56-21.58-7.29-27.79-9.17-5.89-1.78-7.46-2.23-13.6-1.77-10.63.8-20.49,4.87-30.74,7.68l1.74,3.73s19.51-6.21,26.83-8.43,23,4.66,23,4.66c5.77,2.44,28.82,7.32,32.15,7.32s12.19-3.33,21.72-7.32a17.08,17.08,0,0,0,2.74-1.48A57.09,57.09,0,0,1,142.88,178.21Z"/><g class="cls-5"><path class="cls-6" d="M101.52,169.85c4.23-.81,8.49-.58,12.77-.6a86.87,86.87,0,0,0,10.82-.72c.58-.08.35-.94-.21-.87-7.8.93-15.87-.16-23.55,1.52-.43.09-.26.75.17.67Z"/></g><path class="cls-7" d="M141.5,164.28c-1.3.19-3.19.43-4.16-.77s-1.06-4.5-.63-5.95c.55-1.88,2.21-2.32,3.88-2.55a13.56,13.56,0,0,1,4.92.15c2.32.6,3,3.22,2.84,5.33-.2,2.7-3.89,3.5-6.19,3.71C142,164.21,141.76,164.24,141.5,164.28Z"/><g class="cls-5"><path class="cls-6" d="M132.67,169.24a7.23,7.23,0,0,0-.72,4.4c.07.35.54.24.58-.07a14.41,14.41,0,0,1,.8-4c.15-.37-.49-.65-.66-.28Z"/></g><g class="cls-5"><path class="cls-6" d="M124.33,159.37l0,2.47a6.36,6.36,0,0,0,.12,2.18.29.29,0,0,0,.55,0,6.37,6.37,0,0,0,.13-2.18l0-2.47a.37.37,0,0,0-.73,0Z"/></g><g class="cls-5"><path class="cls-6" d="M125.72,159.67a8.51,8.51,0,0,0,.16,3.86.36.36,0,0,0,.65-.07,7.2,7.2,0,0,0-.12-1.79c0-.67-.07-1.33-.06-2a.32.32,0,0,0-.63,0Z"/></g><g class="cls-5"><path class="cls-6" d="M143.53,167.75c.22.82.64,2.18,1.5,2.52.21.08.38-.15.35-.33a4,4,0,0,0-.62-1.07,6.14,6.14,0,0,1-.56-1.29.35.35,0,0,0-.67.17Z"/></g><g class="cls-5"><path class="cls-6" d="M152.65,159.79a12.47,12.47,0,0,0,1.54,1.86.32.32,0,0,0,.5-.37,12.66,12.66,0,0,0-1.5-2c-.3-.38-.83.14-.54.52Z"/></g><g class="cls-5"><path class="cls-6" d="M103,171.37c1.81-.75,3.64-1.48,5.42-2.32.33-.16.11-.74-.24-.6-1.86.71-3.68,1.54-5.5,2.35-.39.17-.07.73.32.57Z"/></g></g></g></svg>