<svg xmlns="http://www.w3.org/2000/svg" viewBox="0 0 200 200"><defs><style>.cls-1{isolation:isolate;}.cls-10,.cls-11,.cls-2,.cls-3,.cls-4,.cls-7,.cls-8{fill:#31b404;}.cls-2{opacity:0.2;}.cls-12,.cls-2,.cls-4,.cls-6,.cls-8,.cls-9{mix-blend-mode:multiply;}.cls-13,.cls-5{fill:#fff;}.cls-6,.cls-8{opacity:0.3;}.cls-7{opacity:0.6;}.cls-10,.cls-11,.cls-7{mix-blend-mode:screen;}.cls-10,.cls-12{opacity:0.5;}.cls-13{fill-rule:evenodd;}</style></defs><title>aminoacido</title><g class="cls-1"><g id="Capa_1" data-name="Capa 1"><path class="cls-2" d="M159.68,190.06c0,3.56-24.67,6.45-55.09,6.45s-55.09-2.89-55.09-6.45,24.66-6.45,55.09-6.45S159.68,186.5,159.68,190.06Z"/><path class="cls-3" d="M150.48,88.51c-7.81-9.6-17.5-21.1-17.5-21.1s-1.38-2.81-8.31-4.7c-5.74-1.56-7.6-1.31-7.79-3.36,1.1-.42,1.71-.88,1.71-1.36,0-1.85-8.8-3.34-19.66-3.34S79.26,56.14,79.26,58c0,.51.69,1,1.92,1.44v1.71c0,2.25-3.14,4.72-7.15,7.27S58.41,78.69,58.41,78.69c-6.11,3.82-8.13,6.52-8.13,12.92V182c0,5.4,5.63,10.65,27.76,11.55,0,0,40.84.9,52.37,0,22-1.71,27.77-6.15,27.77-11.55V107.42C158.18,96,158.28,98.12,150.48,88.51Zm-18.87,19.66c-8.68,0-12.47-3.75-12.47-10.21V73c-.11-.68.73-2.53,3.68-2.25,4,.37,7.38,6.3,11.28,11.7s8.68,10.8,12.58,16.2C153.8,108.48,140.28,108.17,131.61,108.17Z"/><path class="cls-3" d="M111.71,194.07h0c-15.34,0-33.5-.39-33.68-.4-18.56-.75-28-4.69-28-11.7V91.61c0-6.2,1.76-9,8.2-13,.11-.08,11.65-7.76,15.62-10.28,3.5-2.22,7.09-4.82,7.09-7.16V59.52C79.69,59.05,79,58.53,79,58c0-2.19,10.11-3.49,19.89-3.49s19.88,1.3,19.88,3.49c0,.51-.57,1-1.71,1.45.17,1.34,1.17,1.57,4,2.23,1,.23,2.2.51,3.66.9,6.76,1.84,8.3,4.53,8.43,4.78.37.44,9.88,11.74,17.49,21.09,1.15,1.41,2.11,2.56,3,3.56,4.76,5.66,4.76,5.66,4.76,15v75c0,6.58-8.62,10.19-27.95,11.7C127,193.94,120.73,194.07,111.71,194.07ZM98.93,54.8c-11.64,0-19.46,1.65-19.46,3.19,0,.43.63.89,1.81,1.3l.12.05v1.8c0,2.46-3.65,5.11-7.23,7.38-4,2.52-15.49,10.2-15.61,10.28-6.33,4-8.07,6.72-8.07,12.81V182c0,6.82,9.28,10.66,27.56,11.4.18,0,18.32.4,33.66.4h0c9,0,15.29-.13,18.68-.4,19.07-1.49,27.57-5,27.57-11.4V107c0-9.21,0-9.21-4.71-14.8-.85-1-1.81-2.15-3-3.56-7.72-9.49-17.4-21-17.5-21.1s-1.46-2.8-8.2-4.64c-1.45-.39-2.66-.67-3.63-.9-2.93-.68-4.15-1-4.3-2.59v-.1l.12,0c1-.4,1.61-.83,1.61-1.23C118.38,56.45,110.56,54.8,98.93,54.8Zm34.29,53.52h-1.61c-8.42,0-12.69-3.49-12.69-10.36V73a2,2,0,0,1,.91-1.71,4.18,4.18,0,0,1,3-.69c3.46.32,6.41,4.56,9.53,9.06.62.89,1.26,1.82,1.92,2.72,1.95,2.7,4.15,5.44,6.28,8.1s4.34,5.4,6.29,8.1c2.24,3.09,2.62,5.38,1.18,7C145.78,108.1,139.48,108.32,133.22,108.32Zm-11-37.46a3.36,3.36,0,0,0-2.1.62,1.81,1.81,0,0,0-.8,1.49V98c0,6.68,4.13,10.06,12.26,10.06h1.61c6.14,0,12.3-.21,14.47-2.62,1.33-1.49.93-3.75-1.2-6.69-2-2.7-4.16-5.45-6.29-8.1s-4.34-5.4-6.29-8.1c-.66-.91-1.3-1.84-1.93-2.74-3.06-4.41-6-8.58-9.18-8.88Z"/><path class="cls-3" d="M150.48,88.51c-7.81-9.6-17.5-21.1-17.5-21.1s-1.38-2.81-8.31-4.7c-5.74-1.56-7.6-1.31-7.79-3.36,1.1-.42,1.71-.88,1.71-1.36,0-1.85-8.8-3.34-19.66-3.34S79.26,56.14,79.26,58c0,.51.69,1,1.92,1.44v1.71c0,2.25-3.14,4.72-7.15,7.27S58.41,78.69,58.41,78.69c-6.11,3.82-8.13,6.52-8.13,12.92V182c0,5.4,5.63,10.65,27.76,11.55,0,0,40.84.9,52.37,0,22-1.71,27.77-6.15,27.77-11.55V107.42C158.18,96,158.28,98.12,150.48,88.51Zm-18.87,19.66c-8.68,0-12.47-3.75-12.47-10.21V73c-.11-.68.73-2.53,3.68-2.25,4,.37,7.38,6.3,11.28,11.7s8.68,10.8,12.58,16.2C153.8,108.48,140.28,108.17,131.61,108.17Z"/><path class="cls-3" d="M111.71,194.07h0c-15.34,0-33.5-.39-33.68-.4-18.56-.75-28-4.69-28-11.7V91.61c0-6.2,1.76-9,8.2-13,.11-.08,11.65-7.76,15.62-10.28,3.5-2.22,7.09-4.82,7.09-7.16V59.52C79.69,59.05,79,58.53,79,58c0-2.19,10.11-3.49,19.89-3.49s19.88,1.3,19.88,3.49c0,.51-.57,1-1.71,1.45.17,1.34,1.17,1.57,4,2.23,1,.23,2.2.51,3.66.9,6.76,1.84,8.3,4.53,8.43,4.78.37.44,9.88,11.74,17.49,21.09,1.15,1.41,2.11,2.56,3,3.56,4.76,5.66,4.76,5.66,4.76,15v75c0,6.58-8.62,10.19-27.95,11.7C127,193.94,120.73,194.07,111.71,194.07ZM98.93,54.8c-11.64,0-19.46,1.65-19.46,3.19,0,.43.63.89,1.81,1.3l.12.05v1.8c0,2.46-3.65,5.11-7.23,7.38-4,2.52-15.49,10.2-15.61,10.28-6.33,4-8.07,6.72-8.07,12.81V182c0,6.82,9.28,10.66,27.56,11.4.18,0,18.32.4,33.66.4h0c9,0,15.29-.13,18.68-.4,19.07-1.49,27.57-5,27.57-11.4V107c0-9.21,0-9.21-4.71-14.8-.85-1-1.81-2.15-3-3.56-7.72-9.49-17.4-21-17.5-21.1s-1.46-2.8-8.2-4.64c-1.45-.39-2.66-.67-3.63-.9-2.93-.68-4.15-1-4.3-2.59v-.1l.12,0c1-.4,1.61-.83,1.61-1.23C118.38,56.45,110.56,54.8,98.93,54.8Zm34.29,53.52h-1.61c-8.42,0-12.69-3.49-12.69-10.36V73a2,2,0,0,1,.91-1.71,4.18,4.18,0,0,1,3-.69c3.46.32,6.41,4.56,9.53,9.06.62.89,1.26,1.82,1.92,2.72,1.95,2.7,4.15,5.44,6.28,8.1s4.34,5.4,6.29,8.1c2.24,3.09,2.62,5.38,1.18,7C145.78,108.1,139.48,108.32,133.22,108.32Zm-11-37.46a3.36,3.36,0,0,0-2.1.62,1.81,1.81,0,0,0-.8,1.49V98c0,6.68,4.13,10.06,12.26,10.06h1.61c6.14,0,12.3-.21,14.47-2.62,1.33-1.49.93-3.75-1.2-6.69-2-2.7-4.16-5.45-6.29-8.1s-4.34-5.4-6.29-8.1c-.66-.91-1.3-1.84-1.93-2.74-3.06-4.41-6-8.58-9.18-8.88Z"/><path class="cls-3" d="M150.48,88.51c-7.81-9.6-17.5-21.1-17.5-21.1s-1.38-2.81-8.31-4.7c-5.74-1.56-7.6-1.31-7.79-3.36,1.1-.42,1.71-.88,1.71-1.36,0-1.85-8.8-3.34-19.66-3.34S79.26,56.14,79.26,58c0,.51.69,1,1.92,1.44v1.71c0,2.25-3.14,4.72-7.15,7.27S58.41,78.69,58.41,78.69c-6.11,3.82-8.13,6.52-8.13,12.92V182c0,5.4,5.63,10.65,27.76,11.55,0,0,40.84.9,52.37,0,22-1.71,27.77-6.15,27.77-11.55V107.42C158.18,96,158.28,98.12,150.48,88.51Zm-18.87,19.66c-8.68,0-12.47-3.75-12.47-10.21V73c-.11-.68.73-2.53,3.68-2.25,4,.37,7.38,6.3,11.28,11.7s8.68,10.8,12.58,16.2C153.8,108.48,140.28,108.17,131.61,108.17Z"/><path class="cls-3" d="M151.11,88.4q-7.81-9.6-15.82-19.1c-.72-.86-1.39-1.75-2.12-2.61-2.1-2.5-6.29-3.75-10-4.67-1.61-.4-3.67-.63-5-1.47-1.82-1.19,1.19-1.59,1-2.68-.23-1.92-6-2.46-7.91-2.72a100.77,100.77,0,0,0-17.72-.54c-4.25.2-8.86.57-12.74,1.86a4.06,4.06,0,0,0-2.14,1.31.75.75,0,0,0,.28,1c.26.19,1.56.8,1.56,1v1.48c0,3.54-5.85,6.37-9.22,8.57C66.5,73,61.77,76.17,56.93,79.3c-3,2-5.47,4.21-6.52,7a17.48,17.48,0,0,0-.76,6.28v81.63c0,3.18-.63,6.88.33,10,1.3,4.23,7.07,6.52,12.58,7.76a94.08,94.08,0,0,0,18.75,1.78c14.49.27,29.06.58,43.55.17,8-.22,16.34-1,23.79-3.18,5-1.42,9.32-3.87,10-7.73a24.48,24.48,0,0,0,.1-4.61V111.91c0-3.85.2-7.74-.15-11.59-.41-4.49-4.44-8.12-7.54-11.92-.18-.22-1.37.1-1.26.23,2,2.46,4.28,4.84,6,7.4a10.72,10.72,0,0,1,1.63,5.7c.23,4.13.07,8.29.07,12.42v63.91c0,3.05.53,6.2-2.12,8.83-2,2-5.46,3.24-8.71,4.1a91.09,91.09,0,0,1-16.54,2.39c-6.9.49-13.94.38-20.87.36-7.7,0-15.39-.12-23.08-.25-5.5-.09-10.91-.17-16.36-.8-6.81-.78-15.12-2.53-18-7.34-1.63-2.69-.94-5.95-.94-8.81V93.16c0-2.79,0-5.61,1.32-8.28,1.53-3,5.14-5.15,8.4-7.31C64.45,75,68.28,72.48,72.15,70A73.91,73.91,0,0,0,79,65.21a6.68,6.68,0,0,0,2.78-5.9l0,0c-4.63-1.84,1-3.13,3.58-3.56a84.13,84.13,0,0,1,14.82-.88,76.19,76.19,0,0,1,12.94,1.1c2.22.41,7.25,1.71,3.29,3.4-.07,0-.16.07-.15.13.15,1.11.9,1.63,2.36,2.05,2.9.83,5.92,1.33,8.67,2.42A12.94,12.94,0,0,1,132.75,68q8.64,10.27,17.1,20.63C150,88.85,151.21,88.53,151.11,88.4Z"/><path class="cls-3" d="M132,108c-4.51,0-8.43-1.18-10.56-4-1.83-2.46-1.68-5.33-1.68-8V73.48a4.27,4.27,0,0,1,.06-1.13c.78-2.85,4.85-.7,6.21.51,3.71,3.28,5.81,7.53,8.55,11.21,3.19,4.27,6.72,8.41,10,12.66,2.06,2.71,6.06,7.46,1.21,9.89-3.62,1.81-9.53,1.37-13.75,1.37-.26,0-1.43.36-.81.36,5.17,0,13,.49,16.8-2.48,2.34-1.82,1.09-4.56-.12-6.5-2.66-4.32-6.44-8.38-9.69-12.49s-5.72-8.14-8.89-12.09c-1.49-1.85-4-4.81-7.67-4.18-2.08.35-3.12,1.34-3.12,2.8v23c0,2.95,0,6,2.34,8.56s6.35,3.31,10.35,3.36C131.47,108.35,132.64,108,132,108Z"/><path class="cls-3" d="M156.55,106.06c0-7.65-.29-8-3.76-12.24s-19.54-23.54-21.56-25.74a24.11,24.11,0,0,0-5-3.9l-44.77.28S64.84,75.85,58.66,79.71s-6.79,8.41-6.79,13.5v87.11c0,4.6,4,10.8,18.79,8s42.32-4.65,61.41.22c15.89,4.06,24.7-1.17,24.48-9.77S156.55,113.72,156.55,106.06Zm-25.2,4.21c-9.65,0-13.87-4.17-13.87-11.35V71.14c-.12-.75.82-2.8,4.1-2.5,4.46.42,8.2,7,12.54,13s9.65,12,14,18C156,110.62,141,110.27,131.35,110.27Z"/><path class="cls-3" d="M119.14,98c0,6.46,3.79,10.21,12.47,10.21s22.19.31,15.07-9.53c-3.9-5.4-8.67-10.8-12.58-16.2s-7.26-11.33-11.28-11.7c-2.95-.28-3.79,1.57-3.68,2.25Z"/><path class="cls-3" d="M133.22,108.25h-1.61c-8.36,0-12.59-3.46-12.59-10.29V73a2,2,0,0,1,.88-1.67,4.12,4.12,0,0,1,2.94-.67c3.41.32,6.34,4.55,9.45,9,.62.9,1.27,1.83,1.92,2.73,1.95,2.7,4.16,5.44,6.29,8.1s4.34,5.4,6.29,8.1c2.22,3.07,2.6,5.33,1.18,6.92C145.72,108,139.45,108.25,133.22,108.25Zm-11-37.45a3.49,3.49,0,0,0-2.17.63,1.87,1.87,0,0,0-.82,1.55V98c0,6.72,4.15,10.12,12.35,10.12h1.61c6.16,0,12.36-.2,14.55-2.65,1.35-1.51.95-3.78-1.2-6.75-1.95-2.7-4.15-5.44-6.29-8.1s-4.33-5.4-6.29-8.1c-.65-.91-1.3-1.83-1.92-2.73-3.08-4.43-6-8.62-9.26-8.93A5.33,5.33,0,0,0,122.25,70.8Z"/><path class="cls-3" d="M126.57,64.46c0,.92-10.1,1.65-22.55,1.65s-22.55-.73-22.55-1.65S91.56,62.81,104,62.81,126.57,63.55,126.57,64.46Z"/><path class="cls-4" d="M116.88,59.35c1.1-.42,1.71-.88,1.71-1.36,0-1.85-8.8-3.34-19.66-3.34S79.26,56.14,79.26,58c0,.51.69,1,1.92,1.44A97.27,97.27,0,0,0,116.88,59.35Z"/><path class="cls-3" d="M134.1,82.44c-3.9-5.4-7.26-11.33-11.28-11.7-2.95-.28-3.79,1.57-3.68,2.25V98c0,6.46,3.79,10.21,12.47,10.21s22.19.31,15.07-9.53C142.78,93.24,138,87.84,134.1,82.44Z"/><path class="cls-3" d="M133.22,108.25h-1.61c-8.36,0-12.59-3.46-12.59-10.29V73a2,2,0,0,1,.88-1.67,4.12,4.12,0,0,1,2.94-.67c3.41.32,6.34,4.55,9.45,9,.62.9,1.27,1.83,1.92,2.73,1.95,2.7,4.16,5.44,6.29,8.1s4.34,5.4,6.29,8.1c2.22,3.07,2.6,5.33,1.18,6.92C145.72,108,139.45,108.25,133.22,108.25Zm-11-37.45a3.49,3.49,0,0,0-2.17.63,1.87,1.87,0,0,0-.82,1.55V98c0,6.72,4.15,10.12,12.35,10.12h1.61c6.16,0,12.36-.2,14.55-2.65,1.35-1.51.95-3.78-1.2-6.75-1.95-2.7-4.15-5.44-6.29-8.1s-4.33-5.4-6.29-8.1c-.65-.91-1.3-1.83-1.92-2.73-3.08-4.43-6-8.62-9.26-8.93A5.33,5.33,0,0,0,122.25,70.8Z"/><path class="cls-5" d="M119.14,98c0,6.46,3.79,10.21,12.47,10.21s22.19.31,15.07-9.53c-3.9-5.4-8.67-10.8-12.58-16.2s-7.26-11.33-11.28-11.7c-2.95-.28-3.79,1.57-3.68,2.25Z"/><g class="cls-6"><path class="cls-3" d="M151.34,88.71c-7.8-9.6-17.49-21.1-17.49-21.1s-1.38-2.81-8.32-4.7c-5.73-1.55-7.6-1.31-7.78-3.36,1.1-.42,1.71-.88,1.71-1.36,0-1.85-8.81-3.34-19.67-3.34s-19.67,1.49-19.67,3.34c0,.51.7,1,1.93,1.44v1.71a2.4,2.4,0,0,1,0,.46,154,154,0,0,0,28.57,1c7.59-.15,14.53,1.35,20.17,6.75S149.39,91.71,153.08,97s10.27,20.65-32,20.45c-40.83-.2-69.41,2.4,7.51,2.8,20.25.1,25.16-1.8,25.74,25s0,28.4,0,31-2.31,15.4-23.71,10-41.06-3.4-54.37-.6c-7.62,1.61-14.87,2.95-21.68,2.74,3.77,2.74,11.1,4.83,24.28,5.36,0,0,40.85.9,52.38,0,22-1.72,27.76-6.15,27.76-11.55V107.61C159,96.22,159.15,98.32,151.34,88.71Z"/></g><path class="cls-7" d="M83,69.21s-16.19,11.2-19.66,18.4-1.16,48.61-1.16,48.61l-6.07-.2s-.29-31.6-.58-42S63.87,79.61,83,69.21Z"/><path class="cls-7" d="M62.67,174.35s-1.81,7.43,3.1,11.41c0,0-10.5,1-9.86-11.52Z"/><path class="cls-4" d="M110.14,81s0,.61,0,1.67,0,2.6.08,4.44,0,4,.06,6.26,0,4.74,0,7.19a24.44,24.44,0,0,0,.27,3.63,11.64,11.64,0,0,0,1,3.42,7.68,7.68,0,0,0,1,1.53,7.26,7.26,0,0,0,1.29,1.31,9.41,9.41,0,0,0,1.59,1,12.56,12.56,0,0,0,1.73.75,22.29,22.29,0,0,0,3.37.83c1,.18,2,.27,2.74.34l1.79.12.63,0-.63,0c-.42,0-1,0-1.8-.07s-1.71-.12-2.76-.29a20.83,20.83,0,0,1-3.45-.79,12.58,12.58,0,0,1-1.79-.75,9.45,9.45,0,0,1-1.66-1,8.11,8.11,0,0,1-2.37-2.9,12.37,12.37,0,0,1-1.07-3.47,25,25,0,0,1-.3-3.66c0-2.45,0-4.89,0-7.19s0-4.43.06-6.26.06-3.36.08-4.44S110.14,81,110.14,81Z"/><path class="cls-4" d="M68.49,188.72s1.09-.21,3-.54,4.66-.78,8-1.24,7.23-.92,11.43-1.26,8.73-.58,13.26-.52c2.27,0,4.51.14,6.74.25s4.39.28,6.49.5c1,.09,2.08.22,3.09.34s2,.25,2.93.4c1.9.27,3.68.6,5.31.9s3.12.62,4.43.92l3.39.77,2.94.68-3-.63c-.94-.2-2.08-.45-3.4-.71s-2.82-.56-4.45-.86-3.42-.6-5.32-.85-3.91-.5-6-.7-4.27-.35-6.48-.48-4.46-.2-6.71-.23c-4.5-.08-9,.15-13.2.48s-8.1.74-11.43,1.17-6.09.82-8,1.12S68.49,188.72,68.49,188.72Z"/><path class="cls-8" d="M110.79,78.76a159.94,159.94,0,0,0,1.52,17.71c1,8.36,3.68,16.35,18.86,16.8,0,0-20.82,2.7-20.82-9.9S109.7,77,110.79,78.76Z"/><g class="cls-6"><g class="cls-6"><path class="cls-3" d="M151.34,88.71c-7.8-9.6-17.49-21.1-17.49-21.1s-1.38-2.81-8.32-4.7c-5.73-1.55-7.6-1.31-7.78-3.36,1.1-.42,1.71-.88,1.71-1.36,0-1.85-8.81-3.34-19.67-3.34s-19.67,1.49-19.67,3.34c0,.51.7,1,1.93,1.44v1.71a2.4,2.4,0,0,1,0,.46,154,154,0,0,0,28.57,1c7.59-.15,14.53,1.35,20.17,6.75S149.39,91.71,153.08,97s10.27,20.65-32,20.45c-40.83-.2-69.41,2.4,7.51,2.8,20.25.1,25.16-1.8,25.74,25s0,28.4,0,31-2.31,15.4-23.71,10-41.06-3.4-54.37-.6c-7.62,1.61-14.87,2.95-21.68,2.74,3.77,2.74,11.1,4.83,24.28,5.36,0,0,40.85.9,52.38,0,22-1.72,27.76-6.15,27.76-11.55V107.61C159,96.22,159.15,98.32,151.34,88.71ZM101.75,192c-24.29-.2-27.18-2.6-22-3.2,0,0,22.27-3.6,45.69,0C140.5,190.62,125,192.21,101.75,192Z"/></g></g><path class="cls-3" d="M87.62,48.39v11l1.41.14V48.39Z"/><path class="cls-3" d="M89.25,59.73l-.25,0-1.42-.14-.18,0V48.24h1.85Zm-1.42-.44,1,.1V48.54h-1Z"/><path class="cls-3" d="M89,48.39V59.56l1.41.11V48.39Z"/><path class="cls-3" d="M90.66,59.84l-.24,0L89,59.71l-.19,0V48.24h1.85Zm-1.41-.41,1,.08v-11h-1Z"/><path class="cls-3" d="M90.44,48.39V59.67l1.42.1V48.39Z"/><path class="cls-3" d="M92.07,59.93h-.23l-1.42-.1h-.19V48.24h1.84Zm-1.41-.39,1,.06V48.54h-1Z"/><path class="cls-3" d="M93.27,48.39V59.84l1.41.06V48.39Z"/><path class="cls-3" d="M94.9,60.05h-.23L93.26,60h-.21V48.24H94.9Zm-1.41-.35,1,0V48.54h-1Z"/><path class="cls-3" d="M96.1,48.39V59.93c.47,0,.94,0,1.41,0V48.39Z"/><path class="cls-3" d="M97.73,60.11h-.22l-1.42,0h-.21V48.24h1.85Zm-1.41-.32,1,0V48.54h-1Z"/><path class="cls-3" d="M94.68,48.39V59.9c.47,0,.94,0,1.42,0V48.39Z"/><path class="cls-3" d="M96.32,60.09h-.23l-1.42,0h-.2V48.24h1.85Zm-1.42-.34,1,0V48.54h-1Z"/><path class="cls-3" d="M83.37,48.39V58.83l1.42.24V48.39Z"/><path class="cls-3" d="M85,59.25l-.27,0L83.32,59l-.16,0V48.24H85Zm-1.42-.54,1,.17V48.54h-1Z"/><path class="cls-3" d="M86.2,48.39V59.26l1.42.16v-11Z"/><path class="cls-3" d="M87.83,59.6l-.25,0-1.42-.16-.17,0V48.24h1.84Zm-1.41-.47,1,.12V48.54h-1Z"/><path class="cls-3" d="M79.13,48.39v9.26a11.08,11.08,0,0,0,1.42.53V48.39Z"/><path class="cls-3" d="M80.76,58.4l-.3-.09A10.18,10.18,0,0,1,79,57.77l-.09,0V48.24h1.84Zm-1.41-.83a8.87,8.87,0,0,0,1,.37v-9.4h-1Z"/><path class="cls-3" d="M78,48.39v8.14c0,.39.4.77,1.14,1.12V48.39Z"/><path class="cls-3" d="M79.35,57.94,79,57.77c-.82-.39-1.23-.81-1.23-1.24V48.24h1.57Zm-1.14-9.4v8c0,.27.24.55.71.82V48.54Z"/><path class="cls-3" d="M80.55,48.39v9.79c.42.12.9.25,1.41.36V48.39Z"/><path class="cls-3" d="M82.18,58.75l-.29-.06c-.53-.13-1-.25-1.43-.38l-.13,0v-10h1.85Zm-1.42-.68c.3.09.63.18,1,.26V48.54h-1Z"/><path class="cls-3" d="M84.79,48.39V59.07l1.41.19V48.39Z"/><path class="cls-3" d="M86.42,59.44l-.26,0-1.42-.2-.17,0V48.24h1.85ZM85,58.94l1,.14V48.54H85Z"/><path class="cls-3" d="M82,48.39V58.54c.44.1.91.2,1.41.29V48.39Z"/><path class="cls-3" d="M83.59,59l-.27,0-1.43-.29-.15,0V48.24h1.85Zm-1.41-.59,1,.21V48.54h-1Z"/><path class="cls-3" d="M97.51,48.39V60h1.42V48.39Z"/><path class="cls-3" d="M99.14,60.12H97.3V48.24h1.84Zm-1.41-.31h1V48.54h-1Z"/><path class="cls-3" d="M91.86,48.39V59.77l1.41.07V48.39Z"/><path class="cls-3" d="M93.49,60h-.23l-1.42-.07-.2,0V48.24h1.85Zm-1.42-.37,1,0V48.54h-1Z"/><path class="cls-3" d="M113.06,48.39V59.07l1.42-.24V48.39Z"/><path class="cls-3" d="M112.85,59.25v-11h1.84V59l-.16,0-1.42.23Zm.43-10.71V58.88l1-.17V48.54Z"/><path class="cls-3" d="M114.48,48.39V58.83c.5-.09,1-.19,1.41-.29V48.39Z"/><path class="cls-3" d="M114.26,59V48.24h1.85V58.65l-.15,0-1.43.29Zm.43-10.48v10.1l1-.21V48.54Z"/><path class="cls-3" d="M98.93,48.39V60h1.41V48.39Z"/><path class="cls-3" d="M98.93,60.12h-.22V48.24h1.85V60.11H98.93Zm.21-11.58V59.82h1V48.54Z"/><path class="cls-3" d="M118.72,48.39v9.26c.74-.35,1.14-.73,1.14-1.12V48.39Z"/><path class="cls-3" d="M118.5,57.93V48.24h1.58v8.29c0,.43-.42.85-1.24,1.24Zm.44-9.39v8.81c.46-.27.7-.55.7-.82v-8Z"/><path class="cls-3" d="M110.24,48.39v11l1.41-.16V48.39Z"/><path class="cls-3" d="M110,59.6V48.24h1.85V59.38l-.18,0-1.42.16Zm.43-11.06V59.25l1-.12V48.54Z"/><path class="cls-3" d="M115.89,48.39V58.54c.52-.11,1-.24,1.41-.36V48.39Z"/><path class="cls-3" d="M115.67,58.75V48.24h1.85v10l-.13,0c-.42.13-.9.25-1.43.38Zm.44-10.21v9.79c.35-.08.68-.17,1-.26V48.54Z"/><path class="cls-3" d="M117.3,48.39v9.79a11.08,11.08,0,0,0,1.42-.53V48.39Z"/><path class="cls-3" d="M117.09,58.4V48.24h1.85v9.49l-.1,0a9.74,9.74,0,0,1-1.45.54Zm.43-9.86v9.4a8.87,8.87,0,0,0,1-.37v-9Z"/><path class="cls-3" d="M111.65,48.39V59.26l1.41-.19V48.39Z"/><path class="cls-3" d="M111.43,59.44V48.24h1.85V59.19l-.17,0-1.42.2Zm.44-10.9V59.08l1-.14V48.54Z"/><path class="cls-3" d="M101.75,48.39V59.93c.48,0,1,0,1.42,0V48.39Z"/><path class="cls-3" d="M101.54,60.09V48.24h1.84V60h-.2l-1.42,0ZM102,48.54V59.78l1,0V48.54Z"/><path class="cls-3" d="M100.34,48.39V60c.48,0,1,0,1.41,0V48.39Z"/><path class="cls-3" d="M100.12,60.11V48.24H102V60.08h-.21l-1.42,0Zm.44-11.57V59.81l1,0V48.54Z"/><path class="cls-3" d="M108.82,48.39V59.56l1.42-.14v-11Z"/><path class="cls-3" d="M108.6,59.73V48.24h1.85V59.55l-.18,0-1.42.14ZM109,48.54V59.39l1-.1V48.54Z"/><path class="cls-3" d="M103.17,48.39V59.9l1.41-.06V48.39Z"/><path class="cls-3" d="M103,60.05V48.24h1.85V60h-.2l-1.42.06Zm.43-11.51v11.2l1,0V48.54Z"/><path class="cls-3" d="M107.41,48.39V59.67l1.41-.11V48.39Z"/><path class="cls-3" d="M107.19,59.84V48.24H109V59.69l-.19,0-1.42.11Zm.44-11.3v11l1-.08V48.54Z"/><path class="cls-3" d="M106,48.39V59.77l1.42-.1V48.39Z"/><path class="cls-3" d="M105.78,59.93V48.24h1.85V59.81h-.2l-1.42.1Zm.43-11.39V59.6l1-.06v-11Z"/><path class="cls-3" d="M104.58,48.39V59.84l1.41-.07V48.39Z"/><path class="cls-3" d="M104.36,60V48.24h1.85V59.9l-.2,0L104.6,60Zm.44-11.46V59.68l1,0V48.54Z"/><g class="cls-9"><path class="cls-3" d="M118.72,48.39H78v1.66c2.51,1,13.59,4.41,36.45,1.71,5-.87,1.88,7.37-16.57,7.37-11.21,0-17-1.25-19.76-2.24a2.52,2.52,0,0,0,1,.76,11.08,11.08,0,0,0,1.42.53c.42.12.9.25,1.41.36s.91.2,1.41.29l1.42.24,1.41.19,1.42.16,1.41.14,1.41.11,1.42.1,1.41.07,1.41.06c.47,0,.94,0,1.42,0s.94,0,1.41,0h2.83c.48,0,1,0,1.41,0s1,0,1.42,0l1.41-.06,1.41-.07,1.42-.1,1.41-.11,1.42-.14,1.41-.16,1.41-.19,1.42-.24c.5-.09,1-.19,1.41-.29s1-.24,1.41-.36a11.08,11.08,0,0,0,1.42-.53c.74-.35,1.14-.73,1.14-1.12V48.39Z"/></g><path class="cls-3" d="M119.86,48.39c0,1.89-9.37,3.44-20.93,3.44S78,50.28,78,48.39s9.38-3.45,20.94-3.45S119.86,46.49,119.86,48.39Z"/><path class="cls-3" d="M119.43,48.43c-.21,1.77-5.62,2.27-7.44,2.52a100.12,100.12,0,0,1-14.51.74,88.7,88.7,0,0,1-13.07-1c-1.62-.26-5.81-.83-6-2.36-.2-1.68,6-2.32,7.44-2.52a100.2,100.2,0,0,1,14.51-.74,88.7,88.7,0,0,1,13.07,1c1.62.25,5.81.83,6,2.36,0,.16.88.09.86-.09-.2-1.65-4.53-2.21-6.28-2.51a93.54,93.54,0,0,0-15.82-1A87.83,87.83,0,0,0,82.94,46c-1.63.3-5.2.92-5.38,2.4s4.84,2.26,6.28,2.51a93.67,93.67,0,0,0,15.82,1,87.83,87.83,0,0,0,15.25-1.21c1.63-.3,5.2-.92,5.38-2.4C120.3,48.2,119.45,48.24,119.43,48.43Z"/><path class="cls-10" d="M107.29,47.51c0,1.17-5.78,2.13-12.91,2.13s-12.91-1-12.91-2.13,5.78-2.12,12.91-2.12S107.29,46.34,107.29,47.51Z"/><g class="cls-9"><path class="cls-4" d="M98.93,44.94C87.37,44.94,78,46.49,78,48.39s9.38,3.44,20.94,3.44,20.93-1.55,20.93-3.44S110.49,44.94,98.93,44.94Zm-2.78,5.83c-9,0-16.27-1.2-16.27-2.68s7.28-2.67,16.27-2.67,16.27,1.2,16.27,2.67S105.13,50.77,96.15,50.77Z"/></g><path class="cls-11" d="M81.35,48.07s9-2.2,23.81-1.55C105.16,46.52,90,44.19,81.35,48.07Z"/><path class="cls-10" d="M78.49,51.15a68.56,68.56,0,0,0,19.05,2.26c23.54-.52,11.24,6.14-6.48,4.85C78,57.3,78.82,55.48,78.49,51.15Z"/><path class="cls-11" d="M79.22,52.51s-.86,4.78,12.83,5.36C96.74,57.93,82,57.35,79.22,52.51Z"/><path class="cls-3" d="M137.17,167.92s-8.24,10.8-33.83,10.8-32.24-10.8-32.24-10.8H50.28v3.83H68.93s8.82,10.8,34.41,10.8,36-10.8,36-10.8h18.84v-3.83Z"/><g class="cls-12"><path class="cls-3" d="M156.4,167.92v2.5H139.05s-11.42,11.4-36.58,11.2c-23.85-.19-32.38-11.1-32.38-11.1H50.28v1.23H68.93s8.82,10.8,34.41,10.8,36-10.8,36-10.8h18.84v-3.83Z"/></g><path class="cls-3" d="M53.89,168.62h15A60.6,60.6,0,0,1,53.89,168.62Z"/><path class="cls-7" d="M102.91,189.52c0,.61-3.43,1.1-7.67,1.1s-7.66-.49-7.66-1.1,3.43-1.1,7.66-1.1S102.91,188.91,102.91,189.52Z"/><path class="cls-8" d="M158.18,142.32h-3.72c.36,6.64.83,17.4.6,25.6h3.12Z"/><path class="cls-5" d="M84.2,162.41l-.18-.52a1.16,1.16,0,0,1,0-.18l-.18-5.18s-.07-2-3.9-1.45a1.43,1.43,0,0,0-.46.13l-.81.3a.23.23,0,0,0-.14.27l.33,1.06a.15.15,0,0,0,.19.08c.46-.17,2.17-.65,2.58-.17a2.16,2.16,0,0,1,.38,1.42s-2.77,0-3.64,1.19a2.53,2.53,0,0,0,.71,3.57s1.94,1,3.12-.43a.07.07,0,0,1,.12,0l.25.57a.19.19,0,0,0,.25.1l1.3-.51a.2.2,0,0,0,.12-.26m-2.61-.87a4,4,0,0,1-.37.17c-1.56.37-1.38-1.23-1.38-1.23.17-1.15,2.19-1,2.19-1l0,1.38a.78.78,0,0,1-.41.68"/><path class="cls-5" d="M91.4,155.53a2.52,2.52,0,0,0-3.35.15v-4s0,0,0,0l-1.89.41s0,0,0,0V161a5.78,5.78,0,0,1-.24,1.65l-.06.2,1.52.34a.2.2,0,0,0,.23-.12l.22-.52a1.57,1.57,0,0,0,1.5.68s2.79.32,3.17-3c.3-2.68-.08-3.89-1.06-4.7m-.87,4.23c-.38,2.2-1.49,2.06-2.07,1.83a.57.57,0,0,1-.34-.52v-3.75a.6.6,0,0,1,.18-.44c1.13-1.12,2.72,0,2.23,2.88"/><path class="cls-5" d="M102.19,160.33c.38,3.35,3.17,3,3.17,3a1.55,1.55,0,0,0,1.5-.68l.22.53a.2.2,0,0,0,.23.12l1.52-.34-.06-.21a5.66,5.66,0,0,1-.24-1.64l-.06-9.37,0,0-1.93.26,0,0,.11,3.77a2.52,2.52,0,0,0-3.35-.15c-1,.81-1.36,2-1.06,4.7m4.16-3.36a.63.63,0,0,1,.18.45v3.74a.55.55,0,0,1-.34.52c-.58.24-1.7.37-2.07-1.82-.49-2.84,1.1-4,2.23-2.89"/><path class="cls-5" d="M115.48,155.46a3.15,3.15,0,0,0-2.54-.35,3.52,3.52,0,0,0-2.59,3.36c-.32,3.67,1.61,4.73,2.6,4.8h1.62a.7.7,0,0,0,.25,0,4.05,4.05,0,0,0,2.29-3.57s.37-2.92-1.63-4.18m-.5,3.62c-.11,2.2-.55,2.7-1.27,2.61a1.37,1.37,0,0,1-1.15-1.07,5.64,5.64,0,0,1-.11-1.61c0-.17,0-.33,0-.5,0-.53.11-1.95,1.2-2h.11c.25,0,1.33,0,1.21,2.56"/><path class="cls-5" d="M99.08,155.46a3.15,3.15,0,0,0-2.54-.35A3.51,3.51,0,0,0,94,158.47c-.33,3.67,1.61,4.73,2.59,4.8h1.63a.7.7,0,0,0,.25,0,4.05,4.05,0,0,0,2.29-3.57s.37-2.92-1.63-4.18m-.51,3.62c-.1,2.2-.54,2.7-1.26,2.61a1.37,1.37,0,0,1-1.15-1.07A6,6,0,0,1,96,159c0-.17,0-.33,0-.5,0-.53.11-1.95,1.2-2h.11c.24,0,1.33,0,1.2,2.56"/><path class="cls-5" d="M119.27,155.25l.94-.31a.14.14,0,0,1,.18.1l.2.9s0,0,.06,0a3.2,3.2,0,0,1,2.82-.87s1,.11,1.11.84a0,0,0,0,0,.07,0c.32-.29,1.87-1.59,3.48-.72,0,0,.76.33.78,1.62V163h-2l0-5.63s0-1.37-1.86-.21a.29.29,0,0,0-.14.25l-.07,5.59h-2l.07-5.68s.07-1.25-1.84-.23a.4.4,0,0,0-.2.34l0,5.57h-2V157.5a7.18,7.18,0,0,0-.25-1.9h0l.09-.06a2.67,2.67,0,0,1,.62-.28"/><path class="cls-13" d="M102.06,143.91A21.44,21.44,0,0,1,98,148.4c-2.67,2-3.09,3.65-3,4.52.82.57,2.07.62,3.72.15a6.28,6.28,0,0,0,3-2.35,13.22,13.22,0,0,0,.36-6.81"/><path class="cls-13" d="M98.68,153.16a7.29,7.29,0,0,1-2,.33,3.17,3.17,0,0,1-1.73-.45,1.2,1.2,0,0,0,0,.2l.3.17h0a4.86,4.86,0,0,0,4.22-.21,4.7,4.7,0,0,0,2.05-2.13,6.22,6.22,0,0,1-2.86,2.08"/><path class="cls-13" d="M94.83,153l-.2-.17c-1.28-1.16-.86-3.45-.86-3.47h.1s-.41,2.26.82,3.39l.13.11a3.12,3.12,0,0,1,.07-.64c.19-.86.87-2.22,3-3.88a21,21,0,0,0,4.09-4.53l0,0s0-.07,0-.11a.37.37,0,0,0-.63-.18c-2.36,2.87-8.38,4-8,7.31h0a3,3,0,0,0,.45,1.32c.08.15.16.3.26.46a.37.37,0,0,0,.22.16,2.8,2.8,0,0,0,.49.39,1.11,1.11,0,0,1,0-.19"/></g></g></svg>