<svg id="Capa_1" data-name="Capa 1" xmlns="http://www.w3.org/2000/svg" viewBox="0 0 200 200"><defs><style>.cls-1{fill:#31b404;}.cls-2,.cls-3{fill:#137f3f;}.cls-3{opacity:0.18;}.cls-4{fill:#383838;}</style></defs><title>analisis-de-suelo</title><path class="cls-1" d="M31.31,165.19c0-28.77,47.13-37.62,63.42-11.75,19.48-16,36.07,0,36.07,0,0-7.15,49.15-26.21,49.15,11.75Z"/><path class="cls-1" d="M155.94,62.64C138.72,68,94.22,66.76,94,118h0v37.46h3.89V118.19C156.52,116.05,152.14,66.44,155.94,62.64ZM126.55,83.26c-1.4.92-2.8,2-4.27,3s-2.87,2.29-4.38,3.41-2.9,2.45-4.31,3.72-2.83,2.57-4,4-2.6,2.66-3.62,4.11a45.8,45.8,0,0,0-3.08,4.11,45,45,0,0,0-2.5,3.9C99.68,110.79,99,112,98.4,113s-.91,2.05-1.26,2.83c-.48,1.05-.83,1.78-1,2.16H96c0-.41.07-1.22.19-2.42.09-.88.17-2,.37-3.21s.66-2.56,1.11-4a26.34,26.34,0,0,1,1.87-4.62,27.94,27.94,0,0,1,2.75-4.86A37.2,37.2,0,0,1,105.82,94a54.1,54.1,0,0,1,4.27-4.44c1.54-1.35,3.13-2.67,4.74-3.87s3.28-2.29,4.94-3.23a47,47,0,0,1,4.86-2.58A47.49,47.49,0,0,1,129.14,78a42.71,42.71,0,0,1,9.75-2.61s-3.48,2.07-8.42,5.25C129.26,81.46,127.92,82.29,126.55,83.26Z"/><path class="cls-1" d="M50,76.22c8.56,1.49,33.53,1.5,40,42C62.21,120.1,50,76.22,50,76.22Z"/><path class="cls-1" d="M92.11,82.71c-.23-1.15-.48-2.4-.69-3.72s-.69-2.66-1-4.08-.77-2.86-1.07-4.34a28.14,28.14,0,0,0-1.2-4.43c-.47-1.46-.93-2.93-1.39-4.36-.25-.71-.41-1.46-.67-2.14l-.87-2c-.58-1.3-1.06-2.61-1.57-3.83s-1.22-2.22-1.76-3.25a21.51,21.51,0,0,0-1.65-2.68,16.83,16.83,0,0,0-1.43-2c-.44-.5-.75-1-1-1.23l-.4-.41a9.65,9.65,0,0,1,1.93,1.06,12.54,12.54,0,0,1,2,1.58,15.07,15.07,0,0,1,2.35,2.37c.77.94,1.61,2,2.46,3.11s1.45,2.47,2.16,3.83a20.89,20.89,0,0,1,2,4.26c.53,1.51,1.06,3,1.6,4.57A28.57,28.57,0,0,1,93,69.7c.33,1.55.53,3.1.79,4.58a25.42,25.42,0,0,1,.49,4.3c.06,1.38.06,2.68,0,3.88,0,1.6,0,3-.08,4.18,16.67-38.57-14.11-49.71-23.77-54.86,0,0-12.05,43.84,22.57,55.14C92.76,85.74,92.44,84.33,92.11,82.71Z"/><path class="cls-2" d="M157,174.29a69.06,69.06,0,0,0-8.79-4.88c-2.6-1.32-4.95-2.92-7.65-4.19-6.15-2.9-12.33-6-18.3-9.11a5.73,5.73,0,0,0-1.23-.46c.83.21,1.44-12.3,1.37-13.42a41.6,41.6,0,0,0-10-24.55,55.35,55.35,0,0,0-4.83-4.62c-1.8-1.64-3.22-3.52-5.55-4.47-8-3.26-15.65-5.75-24.4-5a41.72,41.72,0,0,0-23,9.33c-5.9,4.9-9.26,10.74-12.21,17.67-.27.64-.54,1.29-.82,1.93-3.2,7.53-2.37,17.54.15,25.21a41.48,41.48,0,0,0,14.75,20.4c3.72,2.74,7.84,6,12.61,6.5,4.54.5,8.72,1.74,13.38,1.58a41.76,41.76,0,0,0,24.73-9.25,41.07,41.07,0,0,0,6-6,6,6,0,0,0,1.1.73c1.26,0,4,1.94,5.14,2.56,2,1,3.82,2.33,5.76,3.42,4.81,2.74,9.93,4.71,14.79,7.21l6.69,3.43c.63.33,1.29.62,1.9,1,2.31,1.34,4.78,1.54,7.47,1.58a5.91,5.91,0,0,0,2.58-.4,6.13,6.13,0,0,0,1.84-1.57,10.23,10.23,0,0,0,2.83-4.84,7.32,7.32,0,0,0-1.82-5.7A21.7,21.7,0,0,0,157,174.29Zm-46.42-14.35A34,34,0,1,1,95.8,114.12,34,34,0,0,1,110.53,159.94Z"/><circle class="cls-3" cx="80.26" cy="144.4" r="34.03"/><path id="_Trazado_" data-name="&lt;Trazado&gt;" class="cls-2" d="M115.15,111.59a1.39,1.39,0,0,0-.94,2.61,20,20,0,0,1,13,19c0,1.77,2.7,2,2.75.23A22.87,22.87,0,0,0,115.15,111.59Z"/><path id="_Trazado_2" data-name="&lt;Trazado&gt;" class="cls-2" d="M120.07,104.79c-1.59-.78-2.52,1.83-.93,2.61a29,29,0,0,1,15.92,25.7c0,1.77,2.75,2,2.76.23A31.87,31.87,0,0,0,120.07,104.79Z"/><path id="_Trazado_3" data-name="&lt;Trazado&gt;" class="cls-2" d="M27,147.06a16.92,16.92,0,0,0,6.67,16.52c1.44,1,3-1.21,1.59-2.26a14.2,14.2,0,0,1-5.5-14C30.11,145.55,27.36,145.32,27,147.06Z"/><path id="_Trazado_4" data-name="&lt;Trazado&gt;" class="cls-2" d="M19.86,151.47a16.45,16.45,0,0,0,5.64,13.15c1.33,1.18,2.92-1.09,1.6-2.26a13.48,13.48,0,0,1-4.48-10.65C22.69,149.93,19.93,149.69,19.86,151.47Z"/><path class="cls-4" d="M134.47,162.11a1.14,1.14,0,0,0-.27,0c-2.09.46-2.79,5.12-3.62,6.72q-2.18,4.25-4.45,8.44c-.73,1.35,0,1.44,1.08,2l2.43,1.19,7.07,3.45,16.16,7.87c2.72,1.33,5.53,3.15,8.4,4.1,2.13.72,4.76,0,6.7-1.25,3.73-2.34,5.58-8.74,2.71-12.41a13.4,13.4,0,0,0-3.81-3Q156,172.7,144.55,167c-1.84-.92-3.7-1.83-5.56-2.71C138,163.82,135.72,162.15,134.47,162.11Z"/></svg>