<svg id="Capa_1" data-name="Capa 1" xmlns="http://www.w3.org/2000/svg" viewBox="0 0 200 200"><defs><style>.cls-1{fill:#31b404;}</style></defs><title>costo-icon</title><path class="cls-1" d="M155.93,84.8a64.46,64.46,0,0,0-5.51-5.58,104,104,0,0,0,1.24-15.85c1.92-.61,3.51-.84,4.46-.44C159.51,64.36,157.22,78.24,155.93,84.8Z"/><path class="cls-1" d="M154.73,83.6c-.41,2.06-.72,3.4-.72,3.4S139.3,74.59,131.65,72L134,70.53,136.47,69c4-2.37,9.79-5.54,14-6.87A104,104,0,0,1,149.22,78,64.46,64.46,0,0,1,154.73,83.6Z"/><path class="cls-1" d="M86.81,172.81v18.05a6.94,6.94,0,0,1-6.92,6.93H68.22a7,7,0,0,1-6.93-6.93V172.81Z"/><path class="cls-1" d="M141.83,172.81v18.05a6.94,6.94,0,0,1-6.92,6.93H123.24a7,7,0,0,1-6.93-6.93V172.81Z"/><path class="cls-1" d="M180.59,107.23h-13A60.58,60.58,0,0,0,154.73,83.6,64.46,64.46,0,0,0,149.22,78a66.75,66.75,0,0,0-12.75-9,67.58,67.58,0,0,0-8.54-3.93,71.52,71.52,0,0,0-25.44-4.63c-33.83,0-61.82,23.21-66.52,53.41-.24,1.53-.42,3.06-.53,4.62s-.17,2.91-.17,4.39c0,20.41,10.56,38.53,26.88,49.92a69.53,69.53,0,0,0,24.66,10.77,72.66,72.66,0,0,0,29.51.38,69.44,69.44,0,0,0,25.51-10.46,62.91,62.91,0,0,0,24.81-31.89h14a5.45,5.45,0,0,0,5.42-5.43V112.66A5.45,5.45,0,0,0,180.59,107.23ZM77,75.84c-3.17,1.08-4.53-3.94-1.37-5a86.15,86.15,0,0,1,53.74,0c3.15,1,1.8,6.07-1.39,5A81.45,81.45,0,0,0,77,75.84Zm71.11,27.07c-.43-8.09-12.12-8.09-12.55,0-.11,1.92-3.11,1.93-3,0,.25-4.82,4-9.55,9.27-9.28a9.5,9.5,0,0,1,9.28,9.28C151.21,104.84,148.22,104.83,148.11,102.91Z"/><path class="cls-1" d="M149.22,78c-.2,1.45-.36,2.35-.36,2.35A166.39,166.39,0,0,0,134,70.53a39.65,39.65,0,0,0-8.31-3.82s.86-.63,2.25-1.6c5-3.48,16.81-11.29,20.37-10,1.49.53,2.06,3.43,2.16,7.08A104,104,0,0,1,149.22,78Z"/><path class="cls-1" d="M41.22,115.43a55.16,55.16,0,0,1-13.73-5.24,9.93,9.93,0,0,1-3.38-2.89c-2.67-4,7.2-6.18,4.87-.52-2.53,6.13-11.27,3.16-14.37-.14-2-2.11-5.15,1.09-3.17,3.2,5.69,6,14.91,7,20.65.31C36.48,105.06,31,97.67,24.93,99c-7.07,1.52-6.43,10-1.89,13.62,4.71,3.76,11.29,5.75,17.06,7.21,2.81.7,3.93-3.65,1.12-4.36Z"/><path class="cls-1" d="M102.57,2.21a18.32,18.32,0,1,0,18.22,18.4A18.29,18.29,0,0,0,102.57,2.21Zm-.17,32a13.65,13.65,0,1,1,13.73-13.58A13.65,13.65,0,0,1,102.4,34.17Z"/><path class="cls-1" d="M102.59,11.47a.9.9,0,0,1,.9.9v.46A7.57,7.57,0,0,1,106.72,14a1.11,1.11,0,0,1,.63,1,1.15,1.15,0,0,1-1.17,1.15,1.18,1.18,0,0,1-.63-.19A7.62,7.62,0,0,0,103.4,15v4c3.18.79,4.54,2.06,4.54,4.3s-1.8,3.82-4.45,4.07v1.26a.9.9,0,0,1-.9.9.91.91,0,0,1-.92-.9v-1.3a9,9,0,0,1-4.28-1.63A1.15,1.15,0,0,1,98,23.59a1.12,1.12,0,0,1,.69.23,7.4,7.4,0,0,0,3.09,1.4V21.1c-3-.79-4.47-1.94-4.47-4.3s1.78-3.78,4.39-4v-.44A.91.91,0,0,1,102.59,11.47Zm-.84,7.13V14.9c-1.34.12-2,.83-2,1.75S100.14,18.07,101.75,18.6Zm1.65,2.9v3.8c1.34-.14,2.07-.81,2.07-1.81S105,22,103.4,21.5Z"/></svg>