<svg id="Capa_1" data-name="Capa 1" xmlns="http://www.w3.org/2000/svg" viewBox="0 0 57.51 57.51"><defs><style>.cls-1{fill:#fff;}</style></defs><title>facebook-icon</title><path class="cls-1" d="M29.24,7a22.15,22.15,0,0,1,1.89,44.21,10.9,10.9,0,0,1-1.89.11,21.66,21.66,0,0,1-4.8-.51A22.17,22.17,0,0,1,29.24,7m0-1.13a23.3,23.3,0,0,0-5,46.05,23.69,23.69,0,0,0,5,.53,13.25,13.25,0,0,0,2.09-.11A23.28,23.28,0,0,0,29.24,5.83Z"/><path class="cls-1" d="M31.76,24.46a2.6,2.6,0,0,1,2-.69,11.55,11.55,0,0,1,3,.42l.86-4.65a16.38,16.38,0,0,0-5.49-.79,9,9,0,0,0-4.57,1,5,5,0,0,0-2.46,2.51,12,12,0,0,0-.69,4.69v1.83H20.78v5.31h3.66v16.7a21.66,21.66,0,0,0,4.8.51,10.9,10.9,0,0,0,1.89-.11V34.07H36V28.76H31.13V27A3.66,3.66,0,0,1,31.76,24.46Z"/></svg>