<svg id="Capa_1" data-name="Capa 1" xmlns="http://www.w3.org/2000/svg" viewBox="0 0 200 200"><defs><style>.cls-1{fill:#31b404;}.cls-2,.cls-3,.cls-6{fill:#fff;}.cls-3,.cls-7{fill-rule:evenodd;}.cls-4{fill:#4d4d4d;opacity:0.42;}.cls-5{fill:#383838;opacity:0.14;}.cls-6{opacity:0.36;}.cls-7{fill:none;stroke:#fff;stroke-miterlimit:10;}</style></defs><title>fertilizante-foliar</title><path class="cls-1" d="M128.5,141.89l-5,47.71c0,3.55-2.45,6.62-6,8.06a11.9,11.9,0,0,1-4.55.89h-36c-5.41,0-9.94-3.51-10.47-8.12L66,185.22h0l-3.85-33.78c0-14.77,26.85-33.58,31.13-36.49a18,18,0,0,1-.15-2.22V84.64H90.69V78.08h4.19c-1.72-.75-3.36-1.53-4.94-2.31-8.82-.85-12.57,10.4-20.27,18.92-3.48,2.28-4.4,2.77-5,2.88h0c-1.26.23-1.48-.89-.69-2.14,7.14-10.73,3.21-20.05,11.94-28l-.57-.4-12.6-.55V57.84l13.59-.59V55.08h45.58L127.61,61c-8.68,4.69-12.42,11.89-13.5,17.09h3.63v6.56h-2.33l.14.67,7.5,35.26C126.58,125.9,128.53,137.16,128.5,141.89Z"/><path class="cls-2" d="M85.29,153.73l-.1-.29a.43.43,0,0,1,0-.11l-.09-2.91s0-1.13-2.19-.83a1.11,1.11,0,0,0-.26.07l-.46.17a.12.12,0,0,0-.08.15l.19.6a.07.07,0,0,0,.1,0c.26-.09,1.22-.35,1.46-.08a1.24,1.24,0,0,1,.21.79s-1.56,0-2.06.67a1.42,1.42,0,0,0,.39,2,1.52,1.52,0,0,0,1.76-.24,0,0,0,0,1,.07,0l.13.32a.12.12,0,0,0,.15.06l.73-.28a.12.12,0,0,0,.07-.15m-1.47-.5-.21.1c-.88.2-.77-.7-.77-.7.1-.65,1.24-.56,1.24-.56l0,.78a.43.43,0,0,1-.23.38"/><path class="cls-2" d="M89.36,149.88a1.36,1.36,0,0,0-1.09-.32,1.5,1.5,0,0,0-.8.39l0-2.23h0l-1.06.22v0l0,5a2.89,2.89,0,0,1-.14.92l0,.12.86.19a.09.09,0,0,0,.12-.06l.13-.3a.88.88,0,0,0,.84.39s1.57.19,1.79-1.7c.18-1.51,0-2.19-.58-2.64m-.5,2.37c-.22,1.24-.85,1.16-1.17,1a.32.32,0,0,1-.19-.3v-2.1a.4.4,0,0,1,.1-.26c.64-.62,1.53,0,1.25,1.63"/><path class="cls-2" d="M95.43,152.61c.2,1.89,1.77,1.71,1.77,1.71a.88.88,0,0,0,.85-.38l.12.3a.11.11,0,0,0,.13.06l.86-.18,0-.12a3.22,3.22,0,0,1-.13-.93V147.8s0,0,0,0l-1.09.14h0l0,2.13a1.39,1.39,0,0,0-.79-.4,1.41,1.41,0,0,0-1.1.3c-.55.46-.77,1.13-.6,2.65m2.34-1.88a.36.36,0,0,1,.11.25v2.11a.31.31,0,0,1-.2.29c-.32.13-1,.2-1.16-1-.27-1.61.63-2.25,1.26-1.62"/><path class="cls-2" d="M102.92,149.9a1.75,1.75,0,0,0-1.43-.2,1.94,1.94,0,0,0-1.46,1.88c-.2,2.07.89,2.67,1.44,2.71h.92a.35.35,0,0,0,.14,0,2.28,2.28,0,0,0,1.3-2,2.62,2.62,0,0,0-.91-2.36m-.29,2c-.07,1.24-.32,1.51-.72,1.46a.78.78,0,0,1-.65-.6,3.34,3.34,0,0,1-.06-.91,2.62,2.62,0,0,0,0-.28c0-.3.07-1.1.68-1.11H102c.13,0,.74,0,.67,1.45"/><path class="cls-2" d="M93.68,149.85a1.77,1.77,0,0,0-1.42-.2,2,2,0,0,0-1.47,1.89c-.19,2.06.89,2.66,1.45,2.7h.91a.32.32,0,0,0,.14,0,2.29,2.29,0,0,0,1.3-2,2.6,2.6,0,0,0-.91-2.37m-.29,2c-.06,1.24-.31,1.52-.72,1.47a.77.77,0,0,1-.64-.6,3.37,3.37,0,0,1-.06-.91c0-.1,0-.19,0-.29,0-.29.06-1.09.68-1.11h.06c.14,0,.75,0,.67,1.44"/><path class="cls-2" d="M105.05,149.79l.53-.17a.08.08,0,0,1,.1.06l.12.51a0,0,0,0,0,0,0,1.8,1.8,0,0,1,1.59-.48s.54.06.62.47c0,0,0,0,0,0a1.78,1.78,0,0,1,2-.39s.42.18.43.91l0,3.45h-1.11V151s0-.76-1-.12a.16.16,0,0,0-.08.14l0,3.15H107l0-3.19s0-.71-1-.14a.22.22,0,0,0-.12.19v3.14h-1.15l0-3.08a4.3,4.3,0,0,0-.14-1.07h0l0,0a1.58,1.58,0,0,1,.35-.16"/><path class="cls-3" d="M95.39,143.36a12.18,12.18,0,0,1-2.3,2.52c-1.51,1.14-1.75,2-1.73,2.53a2.45,2.45,0,0,0,2.09.1,3.5,3.5,0,0,0,1.72-1.32,7.41,7.41,0,0,0,.22-3.83"/><path class="cls-3" d="M93.47,148.56a4.31,4.31,0,0,1-1.14.18,1.73,1.73,0,0,1-1-.26.36.36,0,0,0,0,.11,1,1,0,0,0,.17.1h0a2.75,2.75,0,0,0,2.37-.11,2.62,2.62,0,0,0,1.16-1.19,3.52,3.52,0,0,1-1.61,1.16"/><path class="cls-3" d="M91.3,148.44l-.11-.09a2.39,2.39,0,0,1-.48-2h.06a2.3,2.3,0,0,0,.45,1.91l.08.06a1.17,1.17,0,0,1,0-.36,4,4,0,0,1,1.72-2.18,11.88,11.88,0,0,0,2.31-2.54h0v-.06a.2.2,0,0,0-.35-.1c-1.34,1.61-4.73,2.21-4.51,4.1h0a1.65,1.65,0,0,0,.25.74l.14.26a.2.2,0,0,0,.13.09,2,2,0,0,0,.27.22.37.37,0,0,1,0-.11"/><path class="cls-4" d="M75.88,67.46l-.57-.4-6.73-.3.34-9.19,7.38-.32V55.08h45.58L127.61,61c-8.68,4.69-12.42,11.89-13.5,17.09h3.63v6.19l-27,.16V78.08h4.19c-1.72-.75-3.36-1.53-4.94-2.31C89.94,75.77,80.93,66.88,75.88,67.46Z"/><path class="cls-5" d="M128.5,141.89l-5,47.71c0,3.55-2.45,6.62-6,8.06,1.62-13.58,8.1-49.9,9.16-55.63,1.34-7.19-4.06-21.39-4.06-21.39L111.75,84.3l3.66.34,7.64,35.93C126.58,125.9,128.53,137.16,128.5,141.89Z"/><path class="cls-6" d="M64,150.87l2,34.35h0l-3.85-33.78c0-14.77,26.85-33.58,31.13-36.49a18,18,0,0,1-.15-2.22V94l2.44,23.09S70.17,136.28,64,150.87Z"/><path class="cls-7" d="M116.71,143.75,111.82,191h-34l-4.29-37.57c.49-6.74,13.9-19.71,26.24-28a13.16,13.16,0,0,1,12.41,1.94l.67.55C114.19,129.77,116.64,138.58,116.71,143.75Z"/></svg>