<svg xmlns="http://www.w3.org/2000/svg" viewBox="0 0 200 200"><defs><style>.cls-1{isolation:isolate;}.cls-2,.cls-3,.cls-4{fill:#31b404;}.cls-3,.cls-4{mix-blend-mode:screen;}.cls-4{opacity:0.8;}.cls-5,.cls-6{fill:#fff;}.cls-6{fill-rule:evenodd;}</style></defs><title>fertilizante-especial</title><g class="cls-1"><g id="Capa_1" data-name="Capa 1"><rect class="cls-2" x="100.3" y="91.29" width="4.56" height="17.23" transform="translate(-0.24 0.25) rotate(-0.14)"/><rect class="cls-2" x="121.86" y="112.75" width="22.39" height="4.56" transform="translate(-38.91 78.08) rotate(-28.72)"/><rect class="cls-2" x="71.25" y="98.95" width="4.56" height="22.39" transform="translate(-58.9 109.93) rotate(-56.18)"/><rect class="cls-2" x="62.81" y="150.94" width="22.73" height="4.56" transform="translate(-78.58 78.09) rotate(-37.98)"/><rect class="cls-2" x="121.98" y="145.01" width="4.56" height="22.67" transform="translate(-72.08 119.78) rotate(-40.97)"/><path class="cls-2" d="M104.44,71.3c.78,2.08-.8,4.6-3.52,5.61s-5.56.15-6.33-1.93.8-4.6,3.52-5.61S103.66,69.22,104.44,71.3Z"/><path class="cls-2" d="M170.93,97.37a16.63,16.63,0,1,1-20.62-11.32A16.63,16.63,0,0,1,170.93,97.37Z"/><path class="cls-3" d="M163.35,92.18c1.16,4-2.55,8.54-8.28,10.21s-11.32-.2-12.47-4.17,2.55-8.54,8.28-10.21S162.2,88.21,163.35,92.18Z"/><path class="cls-4" d="M156.59,91c.59,1.68-.89,3.74-3.31,4.61s-4.88.2-5.48-1.48.89-3.74,3.31-4.6S156,89.29,156.59,91Z"/><path class="cls-2" d="M73.53,166.79a16.64,16.64,0,1,1-16.64-16.64A16.64,16.64,0,0,1,73.53,166.79Z"/><path class="cls-3" d="M67.7,159.68c0,4.13-4.84,7.48-10.81,7.48s-10.81-3.35-10.81-7.48,4.84-7.48,10.81-7.48S67.7,155.55,67.7,159.68Z"/><path class="cls-4" d="M61.55,156.63c.1,1.77-1.9,3.34-4.47,3.49s-4.74-1.17-4.84-3,1.89-3.35,4.46-3.5S61.44,154.85,61.55,156.63Z"/><path class="cls-2" d="M68.62,97.06A16.63,16.63,0,1,1,49.39,83.52,16.63,16.63,0,0,1,68.62,97.06Z"/><path class="cls-3" d="M61.67,91.05c.71,4.08-3.49,8.21-9.37,9.23s-11.22-1.45-11.93-5.52,3.48-8.2,9.37-9.23S61,87,61.67,91.05Z"/><path class="cls-4" d="M55.08,89.1c.4,1.73-1.3,3.62-3.8,4.21S46.41,93,46,91.23s1.3-3.62,3.8-4.21S54.67,87.36,55.08,89.1Z"/><path class="cls-2" d="M153,172.37a16.63,16.63,0,1,1-19.12-13.68A16.62,16.62,0,0,1,153,172.37Z"/><path class="cls-3" d="M146.08,166.32c.67,4.07-3.55,8.17-9.44,9.15s-11.21-1.54-11.89-5.62,3.55-8.17,9.44-9.15S145.4,162.24,146.08,166.32Z"/><path class="cls-4" d="M139.51,164.31c.39,1.74-1.33,3.61-3.84,4.18s-4.87-.38-5.26-2.12,1.32-3.61,3.84-4.18S139.11,162.57,139.51,164.31Z"/><path class="cls-2" d="M106.54,188.24a8.2,8.2,0,1,1-8.19-8.2A8.19,8.19,0,0,1,106.54,188.24Z"/><path class="cls-3" d="M103.67,184.74c0,2-2.38,3.68-5.32,3.68S93,186.77,93,184.74s2.39-3.69,5.33-3.69S103.67,182.7,103.67,184.74Z"/><path class="cls-4" d="M100.64,183.23c0,.88-.93,1.65-2.2,1.72s-2.33-.58-2.39-1.45.94-1.65,2.21-1.72S100.59,182.35,100.64,183.23Z"/><path class="cls-2" d="M186.58,144.43a8.2,8.2,0,1,1-8.19-8.2A8.19,8.19,0,0,1,186.58,144.43Z"/><path class="cls-3" d="M183.71,140.93c0,2-2.38,3.68-5.32,3.68s-5.33-1.65-5.33-3.68,2.38-3.69,5.33-3.69S183.71,138.89,183.71,140.93Z"/><path class="cls-4" d="M180.68,139.42c0,.88-.94,1.65-2.2,1.72s-2.34-.57-2.39-1.45.94-1.65,2.2-1.72S180.63,138.54,180.68,139.42Z"/><path class="cls-2" d="M146.52,51.14A8.19,8.19,0,1,1,138.33,43,8.19,8.19,0,0,1,146.52,51.14Z"/><path class="cls-3" d="M143.66,47.64c0,2-2.39,3.69-5.33,3.69S133,49.68,133,47.64,135.39,44,138.33,44,143.66,45.6,143.66,47.64Z"/><path class="cls-4" d="M140.62,46.14c0,.87-.93,1.64-2.2,1.72s-2.33-.58-2.38-1.46.93-1.64,2.2-1.72S140.57,45.26,140.62,46.14Z"/><path class="cls-2" d="M30.31,133.86a8.2,8.2,0,1,1-8.2-8.2A8.2,8.2,0,0,1,30.31,133.86Z"/><path class="cls-3" d="M27.44,130.36c0,2-2.39,3.68-5.33,3.68s-5.32-1.65-5.32-3.68,2.38-3.69,5.32-3.69S27.44,128.32,27.44,130.36Z"/><path class="cls-4" d="M24.41,128.85c.05.88-.94,1.65-2.21,1.72s-2.33-.57-2.38-1.45.93-1.65,2.2-1.72S24.35,128,24.41,128.85Z"/><path class="cls-2" d="M117.35,81.62a15.11,15.11,0,1,1-11.57-18A15.11,15.11,0,0,1,117.35,81.62Z"/><path class="cls-3" d="M113.55,74.19c-.8,3.67-5.74,5.72-11,4.57s-9-5.05-8.16-8.72,5.73-5.72,11-4.57S114.34,70.52,113.55,74.19Z"/><path class="cls-4" d="M108.67,70.3c-.25,1.6-2.33,2.6-4.64,2.24s-4-2-3.73-3.55,2.32-2.61,4.63-2.24S108.92,68.7,108.67,70.3Z"/><path class="cls-2" d="M126.37,125.57a26.68,26.68,0,1,1-31.66-20.52A26.67,26.67,0,0,1,126.37,125.57Z"/><path class="cls-3" d="M114.86,116.37c1.38,6.49-5.09,13.36-14.46,15.36s-18.07-1.64-19.46-8.12S86,110.25,95.4,108.25,113.48,109.89,114.86,116.37Z"/><path class="cls-4" d="M104.18,113.64c.76,2.75-1.86,5.88-5.84,7s-7.82-.25-8.58-3,1.86-5.87,5.84-7S103.42,110.88,104.18,113.64Z"/><path class="cls-5" d="M91.39,141.76l-.09-.23a.25.25,0,0,1,0-.08l-.14-2.33s-.05-.9-1.76-.61l-.21.06-.36.15a.1.1,0,0,0-.06.12l.16.47a.08.08,0,0,0,.09,0c.2-.08,1-.32,1.15-.11a1,1,0,0,1,.19.64s-1.24,0-1.62.57a1.13,1.13,0,0,0,.35,1.59,1.21,1.21,0,0,0,1.4-.22,0,0,0,0,1,0,0l.12.26a.08.08,0,0,0,.11,0l.58-.24a.09.09,0,0,0,0-.12m-1.18-.37-.16.08c-.7.19-.64-.54-.64-.54.07-.51,1-.46,1-.46v.62a.35.35,0,0,1-.18.3"/><path class="cls-5" d="M94.56,138.6a1.08,1.08,0,0,0-.88-.22,1,1,0,0,0-.63.32l0-1.78h0l-.84.21h0l.09,4a3.06,3.06,0,0,1-.09.74l0,.09.69.14a.09.09,0,0,0,.1-.05l.09-.24a.71.71,0,0,0,.68.29s1.26.12,1.39-1.39c.11-1.21-.07-1.75-.51-2.1m-.35,1.91c-.15,1-.65.94-.91.84a.27.27,0,0,1-.17-.23l0-1.68a.28.28,0,0,1,.08-.21c.49-.51,1.22,0,1,1.28"/><path class="cls-5" d="M99.45,140.65c.2,1.5,1.45,1.32,1.45,1.32a.69.69,0,0,0,.66-.32l.11.24a.08.08,0,0,0,.1.05l.68-.17,0-.09a2.34,2.34,0,0,1-.12-.74l-.12-4.2a0,0,0,0,0,0,0l-.87.13h0l.09,1.69a1.12,1.12,0,0,0-1.51,0c-.43.37-.59.92-.42,2.12m1.83-1.55a.28.28,0,0,1,.08.2l0,1.68a.27.27,0,0,1-.15.24c-.26.11-.76.18-1-.8-.24-1.27.46-1.81,1-1.32"/><path class="cls-5" d="M105.36,138.33a1.38,1.38,0,0,0-1.14-.13,1.57,1.57,0,0,0-1.13,1.53c-.11,1.65.77,2.11,1.21,2.13h0l.72,0a.2.2,0,0,0,.11,0,1.82,1.82,0,0,0,1-1.62,2.07,2.07,0,0,0-.77-1.86m-.19,1.63c0,1-.22,1.22-.54,1.18a.6.6,0,0,1-.53-.46A2.75,2.75,0,0,1,104,140a1.62,1.62,0,0,0,0-.22c0-.24,0-.88.52-.9h0c.11,0,.6,0,.57,1.14"/><path class="cls-5" d="M98,138.49a1.38,1.38,0,0,0-1.14-.13,1.57,1.57,0,0,0-1.13,1.53c-.11,1.65.76,2.11,1.21,2.13h0l.72,0,.11,0a1.84,1.84,0,0,0,1-1.63,2.07,2.07,0,0,0-.77-1.86m-.19,1.63c0,1-.22,1.22-.54,1.19a.62.62,0,0,1-.53-.47,2.71,2.71,0,0,1-.07-.72,1.77,1.77,0,0,0,0-.23c0-.24,0-.88.52-.9h0c.11,0,.6,0,.57,1.13"/><path class="cls-5" d="M107.06,138.2l.42-.15a.07.07,0,0,1,.08,0l.1.41h0a1.4,1.4,0,0,1,1.25-.42s.43,0,.51.36c0,0,0,0,0,0a1.44,1.44,0,0,1,1.56-.36s.34.14.36.72l.06,2.75-.88,0-.07-2.53s0-.61-.83-.07a.11.11,0,0,0-.06.11l0,2.51-.92,0,0-2.55s0-.56-.83-.08a.19.19,0,0,0-.09.15l.07,2.5-.92,0-.05-2.46a3.5,3.5,0,0,0-.13-.85h0l0,0a1.43,1.43,0,0,1,.28-.13"/><path class="cls-6" d="M99.22,133.28a9,9,0,0,1-1.78,2.05c-1.18.95-1.35,1.67-1.33,2.06a2,2,0,0,0,1.67,0,2.78,2.78,0,0,0,1.35-1.08,5.88,5.88,0,0,0,.09-3.06"/><path class="cls-6" d="M97.8,137.47a3.72,3.72,0,0,1-.9.16,1.37,1.37,0,0,1-.78-.18s0,.06,0,.09l.14.07h0a2.16,2.16,0,0,0,1.89-.13,2.09,2.09,0,0,0,.9-1,3,3,0,0,1-1.26,1"/><path class="cls-6" d="M96.07,137.42a.36.36,0,0,1-.09-.08,1.85,1.85,0,0,1-.42-1.55h0a1.87,1.87,0,0,0,.4,1.51l.06.05a1.59,1.59,0,0,1,0-.29,3.21,3.21,0,0,1,1.32-1.77,9.54,9.54,0,0,0,1.8-2.07h0v0a.17.17,0,0,0-.29-.08c-1,1.31-3.72,1.86-3.5,3.36h0a1.4,1.4,0,0,0,.21.59l.13.2a.14.14,0,0,0,.1.07,1,1,0,0,0,.22.17.19.19,0,0,1,0-.08"/></g></g></svg>