<svg id="Capa_1" data-name="Capa 1" xmlns="http://www.w3.org/2000/svg" viewBox="0 0 57.51 57.51"><defs><style>.cls-1,.cls-2{fill:#fff;}.cls-2{fill-rule:evenodd;}</style></defs><title>instagram-icon</title><path class="cls-1" d="M28.75,7A22.17,22.17,0,1,1,6.6,29.12,22.18,22.18,0,0,1,28.75,7m0-1.13a23.3,23.3,0,1,0,23.3,23.3,23.31,23.31,0,0,0-23.3-23.3Z"/><path class="cls-2" d="M37.57,17.16H20a2.85,2.85,0,0,0-3.18,3.2V38a2.81,2.81,0,0,0,3.08,3.13H37.57a2.84,2.84,0,0,0,3.17-3.15V20.29A2.84,2.84,0,0,0,37.57,17.16Zm-1.94,2.71c2.38,0,2.38,0,2.38,2.38s0,2.31-2.34,2.31-2.35,0-2.35-2.35S33.32,19.87,35.63,19.87Zm-6.86,4.6a4.64,4.64,0,1,1-4.67,4.61A4.76,4.76,0,0,1,28.77,24.47ZM38,37c0,1.11-.31,1.42-1.43,1.42H20.92c-1.09,0-1.4-.31-1.4-1.42,0-2.9,0-5.83,0-8.74,0-.83.23-1,1-1,1.09.09,1.11,0,1,1.11A7.34,7.34,0,0,0,35.8,31.2,7.3,7.3,0,0,0,36,27.76c-.08-.42,0-.49.39-.49C38,27.13,38,27.11,38,28.83Z"/></svg>