<svg id="Capa_1" data-name="Capa 1" xmlns="http://www.w3.org/2000/svg" xmlns:xlink="http://www.w3.org/1999/xlink" viewBox="0 0 792 612"><defs><style>.cls-1{fill:none;}.cls-2{clip-path:url(#clip-path);}.cls-3{fill:#8a8b8f;}.cls-4,.cls-5{fill:#137f3f;}.cls-5{fill-rule:evenodd;}</style><clipPath id="clip-path"><rect class="cls-1" width="792" height="612"/></clipPath></defs><title>logo</title><g class="cls-2"><path class="cls-3" d="M199.63,366.17l-1.88-5.33a6.14,6.14,0,0,1-.36-1.89L195.5,306s-.69-20.55-39.91-14.88a19.13,19.13,0,0,0-4.72,1.32l-8.29,3.1a2.25,2.25,0,0,0-1.37,2.77l3.36,10.8a1.54,1.54,0,0,0,1.94.86c4.7-1.72,22.14-6.61,26.42-1.73,4.69,5.36,3.89,14.48,3.89,14.48s-28.36.48-37.24,12.24-4.08,31.44,7.2,36.48c0,0,19.89,9.92,32-4.4a.7.7,0,0,1,1.17.15l2.55,5.8a2.06,2.06,0,0,0,2.63,1.08l13.32-5.25a2.09,2.09,0,0,0,1.21-2.65m-26.77-8.94A37.37,37.37,0,0,1,169.1,359c-16,3.84-14.16-12.6-14.16-12.6,1.8-11.76,22.48-10.2,22.48-10.2l-.31,14.14a8.07,8.07,0,0,1-4.25,6.93"/><path class="cls-3" d="M273.3,295.77a25,25,0,0,0-19.93-5.57,25.62,25.62,0,0,0-14.43,7.08l.12-40.52a.22.22,0,0,0-.27-.22l-19.3,4.21a.3.3,0,0,0-.23.28v91a57.84,57.84,0,0,1-2.49,16.83l-.63,2.09,15.63,3.46a2,2,0,0,0,2.3-1.2l2.23-5.38a15.94,15.94,0,0,0,15.36,7s28.56,3.37,32.4-31c3.07-27.44-.76-39.78-10.76-48.07M264.38,339c-3.86,22.46-15.29,21.06-21.16,18.68a5.76,5.76,0,0,1-3.56-5.34V314.11a6.45,6.45,0,0,1,1.9-4.58c11.52-11.45,27.82.43,22.82,29.51"/><path class="cls-3" d="M383.7,344.84c3.84,34.32,32.4,31,32.4,31a16,16,0,0,0,15.36-7l2.23,5.38a2,2,0,0,0,2.3,1.2L451.62,372l-.64-2.09A58.51,58.51,0,0,1,448.5,353l-.56-95.85a.29.29,0,0,0-.23-.28L428,259.54a.22.22,0,0,0-.27.22l1.12,38.52a25.62,25.62,0,0,0-14.43-7.08,25,25,0,0,0-19.93,5.57c-10,8.29-13.83,20.63-10.76,48.07m42.5-34.31a6.45,6.45,0,0,1,1.9,4.58v38.27a5.76,5.76,0,0,1-3.56,5.34c-5.87,2.38-17.3,3.78-21.16-18.68-5-29.08,11.3-41,22.82-29.51"/><path class="cls-3" d="M519.61,295a32.1,32.1,0,0,0-25.92-3.52c-10.5,3-24.45,11.29-26.51,34.37-3.34,37.54,16.42,48.37,26.53,49.06h.23l16.39-.07a6.15,6.15,0,0,0,2.57-.55c4.92-2.26,22-11.83,23.4-36.45,0,0,3.76-29.9-16.69-42.85m-5.15,37.11c-1.08,22.49-5.53,27.57-13,26.68a14,14,0,0,1-11.72-10.91,61,61,0,0,1-1.2-16.5c.08-1.71.15-3.43.16-5.14,0-5.43,1.11-20,12.27-20.23a11.11,11.11,0,0,0,1.16-.09c2.48-.35,13.57-.46,12.29,26.19"/><path class="cls-3" d="M351.8,295a32.12,32.12,0,0,0-25.93-3.52c-10.49,3-24.44,11.29-26.5,34.37-3.35,37.54,16.42,48.37,26.53,49.06h.23l16.38-.07a6.2,6.2,0,0,0,2.58-.55c4.91-2.26,22-11.83,23.4-36.45,0,0,3.76-29.9-16.69-42.85m-5.15,37.11c-1.08,22.49-5.53,27.57-13,26.68A14,14,0,0,1,322,347.87a61,61,0,0,1-1.2-16.5c.08-1.71.15-3.43.15-5.14,0-5.43,1.12-20,12.28-20.23a11.11,11.11,0,0,0,1.16-.09c2.48-.35,13.57-.46,12.29,26.19"/><path class="cls-4" d="M252.56,431.71l2.1-17.08h3l-2.1,17.08Zm5.58-22.39a1.49,1.49,0,0,1,.51,1.14,1.78,1.78,0,0,1-.56,1.32,1.91,1.91,0,0,1-1.39.54,1.89,1.89,0,0,1-1.34-.47,1.47,1.47,0,0,1-.49-1.12,1.79,1.79,0,0,1,0-.39,1.66,1.66,0,0,1,.63-1.08,2,2,0,0,1,1.23-.39,2,2,0,0,1,1.38.45"/><path class="cls-4" d="M274.71,425.45a11.42,11.42,0,0,1-3.45.51,12.13,12.13,0,0,1-5-1.07,9.12,9.12,0,0,1-3.91-3.34,10.12,10.12,0,0,1-1.53-5.76,14.62,14.62,0,0,1,1.22-5.92,10.45,10.45,0,0,1,3.77-4.51,11.16,11.16,0,0,1,6.4-1.74,11.65,11.65,0,0,1,7,2.22l-1.8,3.18a9.7,9.7,0,0,0-2.32-1.44,7,7,0,0,0-2.9-.6,7.18,7.18,0,0,0-6.79,4.23,10,10,0,0,0-.91,4.31,7.61,7.61,0,0,0,.87,3.68,6.13,6.13,0,0,0,2.44,2.48,7.32,7.32,0,0,0,3.64.89,7.45,7.45,0,0,0,2.58-.39,16.25,16.25,0,0,0,2.19-1l1.08,3.21a11.72,11.72,0,0,1-2.55,1.08"/><path class="cls-4" d="M296,412.89l-1.53,12.68h-3.36l.21-1.83a7.64,7.64,0,0,1-2.08,1.47,6.5,6.5,0,0,1-3.08.63,4.78,4.78,0,0,1-2.62-.72,5.41,5.41,0,0,1-2-2.18,6.93,6.93,0,0,1-.75-3.28,7.5,7.5,0,0,1,.88-3.52,7.31,7.31,0,0,1,2.51-2.76,6.56,6.56,0,0,1,3.71-1.06,4.82,4.82,0,0,1,4.53,2.33l.48-1.76Zm-4,4.88a3,3,0,0,0-1.18-2,3.82,3.82,0,0,0-2.36-.74,4.05,4.05,0,0,0-2.38.66,4,4,0,0,0-1.39,1.64,4.51,4.51,0,0,0-.45,1.9,3.82,3.82,0,0,0,1,2.8,3.61,3.61,0,0,0,2.71,1.07,3.7,3.7,0,0,0,2.16-.69,4.46,4.46,0,0,0,1.53-1.92Z"/><polygon class="cls-4" points="305.35 402.18 302.5 425.57 299.14 425.57 301.99 402.18 305.35 402.18"/><path class="cls-4" d="M312,412.89l-1.55,12.68h-3.36l1.56-12.68Zm-2.51-5.73a2,2,0,0,1,1.44-.54,2.11,2.11,0,0,1,1.3.42,1.44,1.44,0,0,1,.55,1.23,1.79,1.79,0,0,1-.58,1.36,2,2,0,0,1-1.45.56,2.29,2.29,0,0,1-1.29-.45,1.43,1.43,0,0,1-.57-1.23,1.88,1.88,0,0,1,.6-1.35"/><path class="cls-4" d="M331.55,402.18l-2.88,23.39h-3.36l.21-1.65a6.77,6.77,0,0,1-4.46,1.95,6.28,6.28,0,0,1-3.2-.83,6.07,6.07,0,0,1-3-5.29,7.62,7.62,0,0,1,.9-3.6,7.17,7.17,0,0,1,6.54-3.83,6.39,6.39,0,0,1,2.54.49,5.71,5.71,0,0,1,1.95,1.33l1.44-12Zm-5.28,15.5a3.07,3.07,0,0,0-1.2-2,3.81,3.81,0,0,0-2.42-.77,4.42,4.42,0,0,0-3.15,1.16,4,4,0,0,0-1.23,3.07,3.74,3.74,0,0,0,1.06,2.79,3.83,3.83,0,0,0,2.81,1,3.88,3.88,0,0,0,2.22-.69,4.85,4.85,0,0,0,1.61-1.92Z"/><path class="cls-4" d="M348.22,412.89l-1.53,12.68h-3.36l.21-1.83a7.64,7.64,0,0,1-2.08,1.47,6.5,6.5,0,0,1-3.08.63,4.78,4.78,0,0,1-2.62-.72,5.41,5.41,0,0,1-2-2.18,6.93,6.93,0,0,1-.75-3.28,7.5,7.5,0,0,1,.88-3.52,7.31,7.31,0,0,1,2.51-2.76,6.56,6.56,0,0,1,3.71-1.06,4.82,4.82,0,0,1,4.53,2.33l.48-1.76Zm-4,4.88a3,3,0,0,0-1.18-2,3.82,3.82,0,0,0-2.36-.74,4.05,4.05,0,0,0-2.38.66,4,4,0,0,0-1.39,1.64,4.51,4.51,0,0,0-.45,1.9,3.82,3.82,0,0,0,1,2.8,3.61,3.61,0,0,0,2.71,1.07,3.7,3.7,0,0,0,2.16-.69,4.46,4.46,0,0,0,1.53-1.92Z"/><path class="cls-4" d="M367.76,402.18l-2.88,23.39h-3.35l.21-1.65a6.8,6.8,0,0,1-4.47,1.95,6.24,6.24,0,0,1-3.19-.83,6,6,0,0,1-3-5.29,7.61,7.61,0,0,1,.89-3.6,7.2,7.2,0,0,1,6.54-3.83,6.48,6.48,0,0,1,2.55.49,5.71,5.71,0,0,1,2,1.33l1.43-12Zm-5.27,15.5a3.07,3.07,0,0,0-1.2-2,3.86,3.86,0,0,0-2.43-.77,4.42,4.42,0,0,0-3.15,1.16,4,4,0,0,0-1.23,3.07,3.74,3.74,0,0,0,1.07,2.79,3.81,3.81,0,0,0,2.8,1,3.88,3.88,0,0,0,2.22-.69,4.79,4.79,0,0,0,1.62-1.92Z"/><path class="cls-4" d="M393.42,412.89l-2.33,18.76h-3.36l.93-7.34a7.1,7.1,0,0,1-4.56,1.53,5.64,5.64,0,0,1-2.83-.71,5.76,5.76,0,0,1-2.22-2.14,6.13,6.13,0,0,1-.86-3.24,7.4,7.4,0,0,1,.95-3.63,7.62,7.62,0,0,1,2.59-2.76,6.75,6.75,0,0,1,3.66-1,4.84,4.84,0,0,1,4.5,2.18l.39-1.61Zm-6,9.57a5,5,0,0,0,1.68-2l.39-2.64a3.91,3.91,0,0,0-1.17-2,3.29,3.29,0,0,0-2.31-.8,4.48,4.48,0,0,0-2.35.62,4.32,4.32,0,0,0-1.61,1.65,4.54,4.54,0,0,0-.57,2.23,3.37,3.37,0,0,0,1.07,2.56,3.56,3.56,0,0,0,2.53,1,4.11,4.11,0,0,0,2.34-.71"/><path class="cls-4" d="M410.27,412.89l-1.59,12.68h-3l.06-2.16a6.16,6.16,0,0,1-2.21,2,6.29,6.29,0,0,1-3,.74,3.76,3.76,0,0,1-2.63-.92,3.13,3.13,0,0,1-1-2.41,2.49,2.49,0,0,1,0-.45l1.14-9.44h3.36l-1,8.24a2.15,2.15,0,0,0,.37,1.51,1.79,1.79,0,0,0,1.43.59,3.42,3.42,0,0,0,2.65-1.35,6,6,0,0,0,1.36-3.39l.69-5.6Z"/><path class="cls-4" d="M422.77,422.18l1.2,2.61a9.48,9.48,0,0,1-2,.79,8.12,8.12,0,0,1-2.07.29,7.08,7.08,0,0,1-5-1.68,6.16,6.16,0,0,1-1.84-4.8,7.26,7.26,0,0,1,.82-3.31,6.71,6.71,0,0,1,2.51-2.68,7.51,7.51,0,0,1,4.07-1q5.58,0,6.51,6.17l-10,2.67a3,3,0,0,0,1.37,1.38,4.24,4.24,0,0,0,1.92.45,4.76,4.76,0,0,0,2.55-.84m-5.3-6a4.12,4.12,0,0,0-1.05,2.83v.21l6.92-1.89a3.41,3.41,0,0,0-1.11-1.71,2.87,2.87,0,0,0-1.86-.63,3.65,3.65,0,0,0-2.9,1.19"/><path class="cls-4" d="M450.62,413a5.38,5.38,0,0,1,2.13,2,5.74,5.74,0,0,1,.78,3,8,8,0,0,1-1,3.9,7.53,7.53,0,0,1-2.77,2.86,7.92,7.92,0,0,1-4.13,1.07,6,6,0,0,1-2.14-.41,4.88,4.88,0,0,1-1.75-1.09l-.81,7.25h-3.33l2.37-19h2.91l0,1.47a8.63,8.63,0,0,1,4.79-1.8,6.21,6.21,0,0,1,3,.72m-2.7,9.41a4.44,4.44,0,0,0,1.62-1.66,4.52,4.52,0,0,0,.57-2.21A3.4,3.4,0,0,0,449,416a3.59,3.59,0,0,0-2.55-1,3.92,3.92,0,0,0-2.3.71,5,5,0,0,0-1.65,2l-.33,2.64a4,4,0,0,0,1.12,2,3.08,3.08,0,0,0,2.23.8,4.52,4.52,0,0,0,2.37-.63"/><path class="cls-4" d="M460.63,415.85a6.76,6.76,0,0,1,2.52-2.57,5.93,5.93,0,0,1,3-1l-.57,3.35a4.43,4.43,0,0,0-2.53.5,5.26,5.26,0,0,0-2.75,3.94l-.69,5.46h-3.32l1.52-12.68h3Z"/><path class="cls-4" d="M470.78,425.19a6.3,6.3,0,0,1-2.59-2.13,5.73,5.73,0,0,1-1-3.43,8,8,0,0,1,.76-3.4,6.72,6.72,0,0,1,2.43-2.78,7.51,7.51,0,0,1,4.21-1.1,7.59,7.59,0,0,1,3.33.75,6.24,6.24,0,0,1,2.52,2.17,5.83,5.83,0,0,1,1,3.34,8.37,8.37,0,0,1-.71,3.24,6.68,6.68,0,0,1-2.35,2.86A7.24,7.24,0,0,1,474,425.9a7.8,7.8,0,0,1-3.22-.71m5.5-2.76a4,4,0,0,0,1.28-1.66,5.26,5.26,0,0,0,.4-2,3.7,3.7,0,0,0-.55-2.13,3.26,3.26,0,0,0-1.37-1.17,3.9,3.9,0,0,0-1.59-.36,3.47,3.47,0,0,0-2.19.68,4.07,4.07,0,0,0-1.28,1.68,5.19,5.19,0,0,0-.42,2,3.35,3.35,0,0,0,1.08,2.73,3.69,3.69,0,0,0,2.45.9,3.47,3.47,0,0,0,2.19-.68"/><path class="cls-4" d="M500.59,402.18l-2.88,23.39h-3.35l.21-1.65a6.8,6.8,0,0,1-4.47,1.95,6.24,6.24,0,0,1-3.19-.83,6,6,0,0,1-2.24-2.23,6.13,6.13,0,0,1-.8-3.06,7.73,7.73,0,0,1,.89-3.6,7.2,7.2,0,0,1,6.54-3.83,6.48,6.48,0,0,1,2.55.49,5.71,5.71,0,0,1,1.95,1.33l1.44-12Zm-5.27,15.5a3.07,3.07,0,0,0-1.2-2,3.86,3.86,0,0,0-2.43-.77,4.42,4.42,0,0,0-3.15,1.16,4,4,0,0,0-1.23,3.07,3.74,3.74,0,0,0,1.07,2.79,3.81,3.81,0,0,0,2.8,1,3.88,3.88,0,0,0,2.22-.69,4.79,4.79,0,0,0,1.62-1.92Z"/><path class="cls-4" d="M516.12,412.89l-1.59,12.68h-3l.05-2.16a6,6,0,0,1-2.21,2,6.29,6.29,0,0,1-3,.74,3.72,3.72,0,0,1-2.62-.92,3.1,3.1,0,0,1-1-2.41,2.49,2.49,0,0,1,0-.45l1.14-9.44h3.36l-1,8.24a2.15,2.15,0,0,0,.37,1.51,1.79,1.79,0,0,0,1.43.59,3.42,3.42,0,0,0,2.65-1.35,6,6,0,0,0,1.36-3.39l.69-5.6Z"/><path class="cls-4" d="M527.81,425.61a8.87,8.87,0,0,1-2.31.32,8.18,8.18,0,0,1-2.93-.59,6,6,0,0,1-2.61-2,5.62,5.62,0,0,1-1.08-3.57,7.51,7.51,0,0,1,.84-3.45,6.92,6.92,0,0,1,2.44-2.69,6.78,6.78,0,0,1,3.79-1.05,7.26,7.26,0,0,1,5.25,1.91l-1.92,2.07a4.79,4.79,0,0,0-1.33-.87,4.3,4.3,0,0,0-1.79-.36,3.54,3.54,0,0,0-1.91.56,4.1,4.1,0,0,0-1.44,1.51,4.27,4.27,0,0,0-.54,2.13,3.48,3.48,0,0,0,1.06,2.58,3.77,3.77,0,0,0,2.77,1.05,4.22,4.22,0,0,0,2.31-.69l1.44,2.22a7,7,0,0,1-2,.88"/><path class="cls-4" d="M542.71,422.18l1.2,2.61a9.48,9.48,0,0,1-2,.79,8.12,8.12,0,0,1-2.07.29,7.08,7.08,0,0,1-5-1.68,6.16,6.16,0,0,1-1.84-4.8,7.26,7.26,0,0,1,.82-3.31,6.71,6.71,0,0,1,2.51-2.68,7.51,7.51,0,0,1,4.07-1q5.58,0,6.51,6.17l-10,2.67a3,3,0,0,0,1.37,1.38,4.24,4.24,0,0,0,1.92.45,4.76,4.76,0,0,0,2.55-.84m-5.3-6a4.12,4.12,0,0,0-1,2.83v.21l6.92-1.89a3.41,3.41,0,0,0-1.11-1.71,2.87,2.87,0,0,0-1.86-.63,3.65,3.65,0,0,0-2.9,1.19"/><path class="cls-4" d="M548.89,425.36a1.45,1.45,0,0,1-.51-1.14,1.77,1.77,0,0,1,.55-1.32,1.92,1.92,0,0,1,1.39-.54,1.88,1.88,0,0,1,1.34.46,1.49,1.49,0,0,1,.49,1.13,1.79,1.79,0,0,1,0,.39,1.66,1.66,0,0,1-.63,1.08,2,2,0,0,1-1.22.39,2,2,0,0,1-1.38-.45m5.57-22.4-2.1,17.09h-3L551.46,403Z"/><path class="cls-3" d="M558.37,292.92l9.65-3.23a1.43,1.43,0,0,1,1.83,1l2.06,9.25a.4.4,0,0,0,.65.21c2.47-2.23,9.82-10.56,28.78-8.9,0,0,9.86,1.12,11.4,8.56a.44.44,0,0,0,.73.23c3.24-3,19.15-16.34,35.63-7.35,0,0,7.68,3.36,7.92,16.56v62.64H636.86l-.24-57.6s.23-13.95-19-2.11a3.09,3.09,0,0,0-1.46,2.56l-.7,57.15H594.62l.72-58.08s.68-12.79-18.81-2.35a4,4,0,0,0-2.06,3.48l.23,56.95H553.82v-56a73.85,73.85,0,0,0-2.6-19.44l0-.13.88-.55a25.79,25.79,0,0,1,6.31-2.85"/><path class="cls-5" d="M382.32,176.86c-23.1,32.28-41.51,45.76-41.69,45.89-27.39,21-31.63,37.39-31.26,46.25,8.43,5.84,21.21,6.39,38.1,1.58.17-.05,16.15-4.33,31.17-24,7.19-17.32,8-41,3.68-69.68"/><path class="cls-5" d="M347.73,271.54a76.28,76.28,0,0,1-20.59,3.29c-7.1,0-13-1.55-17.69-4.58a20.55,20.55,0,0,0,.31,2.06c1,.6,2,1.18,3.13,1.72a.57.57,0,0,1,0,.13c7.22,3.47,22,7.42,43.09-2.17a47.82,47.82,0,0,0,21-21.75c-14.49,17.38-29.08,21.26-29.24,21.3"/><path class="cls-5" d="M308.32,269.51a23.09,23.09,0,0,1-2-1.66c-13.07-11.94-8.81-35.34-8.77-35.57l1,.19c-.05.23-4.2,23.08,8.46,34.65.42.38.87.74,1.31,1.09a29.38,29.38,0,0,1,.71-6.57c1.92-8.72,8.86-22.68,31-39.69.2-.14,18.72-13.71,41.92-46.29l.21.15c-.06-.37-.11-.73-.17-1.11a3.72,3.72,0,0,0-6.4-1.84c-24.2,29.38-85.71,40.57-81.53,74.85h0a32,32,0,0,0,4.57,13.51c.8,1.5,1.7,3,2.72,4.61a3.26,3.26,0,0,0,2.25,1.68,34.06,34.06,0,0,0,5,4c-.09-.63-.18-1.29-.23-2"/></g></svg>