<svg id="Capa_1" data-name="Capa 1" xmlns="http://www.w3.org/2000/svg" viewBox="0 0 584 248"><defs><style>.cls-1,.cls-2{fill:#fff;}.cls-2{fill-rule:evenodd;}</style></defs><title>logo-blanco</title><path class="cls-1" d="M97.49,218.27l-1.89-5.34a6.73,6.73,0,0,1-.36-1.89l-1.88-52.95s-.69-20.55-39.92-14.88a19,19,0,0,0-4.72,1.33l-8.29,3.09a2.26,2.26,0,0,0-1.36,2.78l3.35,10.8a1.53,1.53,0,0,0,1.94.85c4.7-1.71,22.15-6.6,26.42-1.72,4.7,5.35,3.9,14.47,3.9,14.47s-28.36.48-37.24,12.24-4.08,31.44,7.2,36.48c0,0,19.88,9.93,32-4.4a.69.69,0,0,1,1.16.16l2.56,5.79A2,2,0,0,0,83,226.16l13.33-5.25a2.09,2.09,0,0,0,1.21-2.64m-26.78-8.94A35.3,35.3,0,0,1,67,211.05c-16,3.84-14.16-12.6-14.16-12.6,1.8-11.76,22.48-10.2,22.48-10.2L75,202.4a8,8,0,0,1-4.25,6.93"/><path class="cls-1" d="M171.15,147.86a25,25,0,0,0-19.92-5.56,25.57,25.57,0,0,0-14.43,7.07l.12-40.52a.22.22,0,0,0-.27-.22l-19.3,4.21a.29.29,0,0,0-.23.29v91A58.2,58.2,0,0,1,114.63,221l-.63,2.08,15.62,3.47a2,2,0,0,0,2.31-1.2l2.23-5.39a15.94,15.94,0,0,0,15.36,6.95s28.56,3.37,32.4-30.95c3.07-27.44-.77-39.78-10.77-48.07m-8.91,43.27c-3.86,22.47-15.29,21.06-21.16,18.68a5.73,5.73,0,0,1-3.56-5.33V166.2a6.5,6.5,0,0,1,1.89-4.58c11.53-11.44,27.83.43,22.83,29.51"/><path class="cls-1" d="M281.55,196.93c3.84,34.32,32.4,30.95,32.4,30.95a15.94,15.94,0,0,0,15.36-6.95l2.23,5.39a2,2,0,0,0,2.31,1.2l15.62-3.47-.63-2.08a58.2,58.2,0,0,1-2.49-16.84l-.56-95.85a.29.29,0,0,0-.23-.28l-19.74,2.63a.22.22,0,0,0-.27.22l1.12,38.52a25.57,25.57,0,0,0-14.43-7.07,25,25,0,0,0-19.92,5.56c-10,8.29-13.84,20.63-10.77,48.07m42.51-34.31A6.5,6.5,0,0,1,326,167.2v38.28a5.73,5.73,0,0,1-3.56,5.33c-5.87,2.38-17.3,3.79-21.16-18.68-5-29.08,11.3-40.95,22.83-29.51"/><path class="cls-1" d="M417.47,147.09a32.13,32.13,0,0,0-25.93-3.53c-10.5,3-24.44,11.29-26.5,34.37-3.35,37.55,16.41,48.38,26.53,49.06h.23l16.38-.06a6.21,6.21,0,0,0,2.58-.56c4.91-2.26,22-11.82,23.4-36.45,0,0,3.76-29.9-16.69-42.84m-5.15,37.11c-1.08,22.48-5.54,27.56-13,26.67A14,14,0,0,1,387.64,200a60.5,60.5,0,0,1-1.2-16.5c.08-1.71.15-3.42.15-5.14,0-5.42,1.12-20,12.27-20.23A9.22,9.22,0,0,0,400,158c2.48-.35,13.57-.46,12.29,26.2"/><path class="cls-1" d="M249.66,147.09a32.13,32.13,0,0,0-25.93-3.53c-10.5,3-24.44,11.29-26.5,34.37-3.35,37.55,16.41,48.38,26.53,49.06H224l16.39-.06a6.21,6.21,0,0,0,2.58-.56c4.91-2.26,22-11.82,23.4-36.45,0,0,3.76-29.9-16.69-42.84m-5.15,37.11c-1.08,22.48-5.54,27.56-13,26.67A13.94,13.94,0,0,1,219.83,200a60.83,60.83,0,0,1-1.21-16.5c.08-1.71.15-3.42.16-5.14,0-5.42,1.11-20,12.27-20.23a9.22,9.22,0,0,0,1.17-.09c2.47-.35,13.57-.46,12.29,26.2"/><path class="cls-1" d="M456.22,145l9.66-3.23a1.4,1.4,0,0,1,1.82,1l2.07,9.24a.39.39,0,0,0,.64.21c2.47-2.23,9.83-10.56,28.79-8.9,0,0,9.86,1.12,11.39,8.56a.44.44,0,0,0,.73.23c3.25-3,19.16-16.34,35.64-7.35,0,0,7.68,3.36,7.92,16.56V224H534.72l-.24-57.6s.23-13.95-19-2.11a3.07,3.07,0,0,0-1.46,2.57l-.7,57.14H492.48l.72-58.08s.67-12.79-18.81-2.35a3.92,3.92,0,0,0-2.06,3.48l.23,56.95H451.68V168a74.16,74.16,0,0,0-2.6-19.44l0-.14.88-.55a25.9,25.9,0,0,1,6.3-2.84"/><path class="cls-2" d="M280.17,29c-23.09,32.28-41.5,45.77-41.68,45.9-27.39,21-31.63,37.38-31.27,46.25,8.43,5.84,21.22,6.38,38.11,1.57.17,0,16.15-4.32,31.16-24,7.19-17.32,8-41,3.68-69.68"/><path class="cls-2" d="M245.59,123.64a76.3,76.3,0,0,1-20.6,3.28c-7.09,0-13-1.54-17.68-4.58.07.77.18,1.44.3,2.07,1,.6,2,1.17,3.14,1.71a.53.53,0,0,0,0,.13c7.22,3.48,22,7.42,43.08-2.16a47.84,47.84,0,0,0,21-21.75c-14.49,17.37-29.09,21.26-29.24,21.3"/><path class="cls-2" d="M206.18,121.61a25,25,0,0,1-2-1.66c-13.07-12-8.82-35.34-8.77-35.58l1,.19c0,.23-4.19,23.09,8.46,34.65.43.38.87.74,1.32,1.09a28.8,28.8,0,0,1,.71-6.57c1.91-8.71,8.86-22.67,31-39.68.19-.15,18.72-13.71,41.91-46.29l.22.15c-.06-.37-.11-.74-.17-1.11a3.72,3.72,0,0,0-6.4-1.85c-24.21,29.38-85.71,40.58-81.54,74.85h0a31.82,31.82,0,0,0,4.58,13.5c.8,1.5,1.7,3,2.72,4.61a3.24,3.24,0,0,0,2.24,1.68,33.68,33.68,0,0,0,5,4c-.1-.63-.18-1.3-.23-2"/></svg>