<svg id="Capa_1" data-name="Capa 1" xmlns="http://www.w3.org/2000/svg" viewBox="0 0 200 200"><defs><style>.cls-1{fill:#31b404;}</style></defs><title>nutrientes-icon</title><path class="cls-1" d="M43.59,197.79c0-38,36.42-49.68,49-15.51,15.06-21.13,27.87,0,27.87,0,0-9.44,38-34.61,38,15.51Z"/><path class="cls-1" d="M155.07,85.63c-17.93,5.6-64.28,4.29-64.49,57.63h0v39h4v-38.8C155.67,141.25,151.12,89.59,155.07,85.63ZM124.46,107.1c-1.45,1-2.91,2.06-4.44,3.16s-3,2.38-4.57,3.55-3,2.55-4.49,3.88-2.94,2.67-4.2,4.14a55,55,0,0,0-3.77,4.28,47.24,47.24,0,0,0-3.21,4.28,47.81,47.81,0,0,0-2.6,4.06c-.71,1.33-1.4,2.53-2,3.61s-.94,2.14-1.31,2.95c-.49,1.1-.86,1.85-1.06,2.25h-.16c0-.42.07-1.27.19-2.52.1-.92.18-2.05.39-3.34s.68-2.67,1.16-4.2a26.41,26.41,0,0,1,1.94-4.82,30,30,0,0,1,2.86-5.07,40.12,40.12,0,0,1,3.73-5,55.2,55.2,0,0,1,4.44-4.62c1.61-1.41,3.26-2.78,4.94-4s3.41-2.38,5.15-3.36a48.82,48.82,0,0,1,5-2.69,50,50,0,0,1,4.7-2,44.23,44.23,0,0,1,10.16-2.71s-3.63,2.15-8.77,5.46C127.28,105.22,125.89,106.1,124.46,107.1Z"/><path class="cls-1" d="M44.78,99.77c8.91,1.55,34.92,1.56,41.66,43.71C57.46,145.47,44.78,99.77,44.78,99.77Z"/><path class="cls-1" d="M88.6,106.53c-.25-1.2-.51-2.5-.73-3.87s-.71-2.78-1-4.26-.79-3-1.11-4.52a29.34,29.34,0,0,0-1.25-4.61c-.48-1.52-1-3-1.44-4.54-.27-.74-.43-1.52-.71-2.23l-.9-2.08c-.61-1.35-1.1-2.72-1.64-4S78.52,74.11,78,73a21.65,21.65,0,0,0-1.72-2.78,19.85,19.85,0,0,0-1.48-2.08c-.47-.52-.79-1-1.07-1.28l-.43-.43a10.83,10.83,0,0,1,2,1.1,13.09,13.09,0,0,1,2.12,1.65,16.37,16.37,0,0,1,2.45,2.47c.8,1,1.67,2.06,2.56,3.24.74,1.24,1.51,2.57,2.25,4a21.61,21.61,0,0,1,2,4.44c.55,1.57,1.11,3.16,1.66,4.75A30,30,0,0,1,89.53,93c.33,1.61.54,3.23.81,4.77a26.57,26.57,0,0,1,.52,4.48c.06,1.43.06,2.79,0,4,0,1.67,0,3.12-.08,4.35,17.36-40.16-14.7-51.77-24.76-57.13,0,0-12.55,45.65,23.51,57.42C89.28,109.69,88.94,108.21,88.6,106.53Z"/></svg>