<svg id="Capa_1" data-name="Capa 1" xmlns="http://www.w3.org/2000/svg" viewBox="0 0 200 200"><defs><style>.cls-1{fill:#31b404;}</style></defs><title>porciento-icon</title><path class="cls-1" d="M19.91,102.54H28v94.34H16.27V123.42l-9.46,4L4.33,110.56Z"/><path class="cls-1" d="M85.79,169.05a63.48,63.48,0,0,1-4.91,15.38,30.69,30.69,0,0,1-7.64,10.31,15,15,0,0,1-9.87,3.75,15.16,15.16,0,0,1-9.88-3.68,29.51,29.51,0,0,1-7.59-10.24,63,63,0,0,1-4.84-15.32,106.27,106.27,0,0,1,0-38.14A64,64,0,0,1,46,115.65a30.73,30.73,0,0,1,7.63-10.3,15,15,0,0,1,9.88-3.75,15.16,15.16,0,0,1,9.88,3.68A29.61,29.61,0,0,1,81,115.52a63.75,63.75,0,0,1,4.85,15.39,100.73,100.73,0,0,1,1.7,19A98.29,98.29,0,0,1,85.79,169.05ZM74.45,138.27a45.75,45.75,0,0,0-2.41-9.5,18.46,18.46,0,0,0-3.75-6.29,6.47,6.47,0,0,0-9.8-.07,18.06,18.06,0,0,0-3.72,6.16A43.33,43.33,0,0,0,52.4,138a81.78,81.78,0,0,0-.81,11.91,77.58,77.58,0,0,0,.85,11.91,46.59,46.59,0,0,0,2.4,9.5,18.53,18.53,0,0,0,3.76,6.29,6.47,6.47,0,0,0,9.8.07,18,18,0,0,0,3.72-6.22A44.84,44.84,0,0,0,74.48,162a78.9,78.9,0,0,0,.82-11.84A78.86,78.86,0,0,0,74.45,138.27Z"/><path class="cls-1" d="M142.35,169.05a63,63,0,0,1-4.92,15.38,30.67,30.67,0,0,1-7.63,10.31,15,15,0,0,1-9.88,3.75,15.18,15.18,0,0,1-9.88-3.68,29.51,29.51,0,0,1-7.59-10.24,63.43,63.43,0,0,1-4.84-15.32,99.73,99.73,0,0,1-1.71-19.07,98.51,98.51,0,0,1,1.75-19.07,63.15,63.15,0,0,1,4.92-15.46,30.6,30.6,0,0,1,7.63-10.3,15,15,0,0,1,9.88-3.75,15.15,15.15,0,0,1,9.87,3.68,29.75,29.75,0,0,1,7.6,10.24,63.76,63.76,0,0,1,4.84,15.39,100.73,100.73,0,0,1,1.7,19A99.1,99.1,0,0,1,142.35,169.05ZM131,138.27a46.42,46.42,0,0,0-2.4-9.5,18.63,18.63,0,0,0-3.76-6.29,6.47,6.47,0,0,0-9.8-.07,18.06,18.06,0,0,0-3.72,6.16A43.36,43.36,0,0,0,109,138a81.72,81.72,0,0,0-.82,11.91,77.53,77.53,0,0,0,.86,11.91,45.94,45.94,0,0,0,2.4,9.5,18.22,18.22,0,0,0,3.76,6.29,6.47,6.47,0,0,0,9.8.07,18.3,18.3,0,0,0,3.72-6.22A44.84,44.84,0,0,0,131,162a80.31,80.31,0,0,0,.81-11.84A77.58,77.58,0,0,0,131,138.27Z"/><path class="cls-1" d="M159.8,198H152l33.49-57.48h7.79Zm4.18-33.6c-.15-.62-.31-1.28-.45-2s-.43-1.42-.62-2.18-.49-1.52-.68-2.32a13.61,13.61,0,0,0-.76-2.37c-.3-.78-.59-1.56-.88-2.33-.16-.38-.26-.77-.43-1.14l-.55-1.06c-.37-.7-.67-1.4-1-2s-.77-1.19-1.12-1.74a9.29,9.29,0,0,0-1.05-1.43,7.36,7.36,0,0,0-.9-1.06c-.28-.27-.48-.53-.65-.67l-.26-.21a7,7,0,0,1,1.23.56,7.44,7.44,0,0,1,1.28.85,9,9,0,0,1,1.5,1.26c.49.51,1,1.06,1.56,1.67s.92,1.32,1.37,2a10.5,10.5,0,0,1,1.24,2.28l1,2.44a13.57,13.57,0,0,1,.71,2.5c.21.83.34,1.65.5,2.45a11.78,11.78,0,0,1,.32,2.29c0,.74,0,1.43,0,2.08,0,.85,0,1.6,0,2.23,10.58-20.61-9-26.56-15.09-29.32,0,0-7.65,23.43,14.33,29.47C164.39,166.05,164.18,165.29,164,164.43Zm13.64,10.75c-6.18,15.88,17,23.31,17,23.31.84-5,5.86-19.39-16.48-23.68.54.3,1.17.67,1.87,1.1.53.33,1.1.68,1.69,1.08a13.39,13.39,0,0,1,1.73,1.34c.57.5,1.19,1,1.76,1.54a14.2,14.2,0,0,1,1.7,1.68l1.49,1.83a9.75,9.75,0,0,1,1.25,1.88c.36.63.69,1.25,1,1.84s.41,1.21.58,1.75a5.52,5.52,0,0,1,.28,1.52,4.37,4.37,0,0,1,0,1.18,3.83,3.83,0,0,1-.15,1s0-.09-.05-.26-.13-.42-.21-.72a7.67,7.67,0,0,0-.42-1.06,8.14,8.14,0,0,0-.65-1.34c-.27-.48-.58-1-.86-1.54s-.79-1-1.18-1.62c-.19-.28-.39-.57-.6-.86s-.49-.54-.72-.83l-1.47-1.69a14.26,14.26,0,0,0-1.56-1.65c-.56-.51-1.06-1.06-1.57-1.57a20.48,20.48,0,0,0-1.48-1.47c-.51-.44-1-.87-1.41-1.27C178.56,176.11,178,175.61,177.62,175.18Z"/></svg>