<svg id="Capa_1" data-name="Capa 1" xmlns="http://www.w3.org/2000/svg" viewBox="0 0 200 200"><defs><style>.cls-1,.cls-2{fill:#fff;}.cls-2{fill-rule:evenodd;}.cls-3{fill:#137f3f;}.cls-4{opacity:0.04;}.cls-5,.cls-6{fill:#31b404;}.cls-6{opacity:0.22;}</style></defs><title>programa-nutricion</title><path class="cls-1" d="M84.2,162.41l-.18-.52a1.16,1.16,0,0,1,0-.18l-.18-5.18s-.07-2-3.9-1.45a1.43,1.43,0,0,0-.46.13l-.81.3a.23.23,0,0,0-.14.27l.33,1.06a.15.15,0,0,0,.19.08c.46-.17,2.17-.65,2.58-.17a2.16,2.16,0,0,1,.38,1.42s-2.77,0-3.64,1.19a2.53,2.53,0,0,0,.71,3.57s1.94,1,3.12-.43a.07.07,0,0,1,.12,0l.25.57a.19.19,0,0,0,.25.1l1.3-.51a.2.2,0,0,0,.12-.26m-2.61-.87a4,4,0,0,1-.37.17c-1.56.37-1.38-1.23-1.38-1.23.17-1.15,2.19-1,2.19-1l0,1.38a.78.78,0,0,1-.41.68"/><path class="cls-1" d="M91.4,155.53a2.52,2.52,0,0,0-3.35.15v-4s0,0,0,0l-1.89.41s0,0,0,0V161a5.78,5.78,0,0,1-.24,1.65l-.06.2,1.52.34a.2.2,0,0,0,.23-.12l.22-.52a1.57,1.57,0,0,0,1.5.68s2.79.32,3.17-3c.3-2.68-.08-3.89-1.06-4.7m-.87,4.23c-.38,2.2-1.49,2.06-2.07,1.83a.57.57,0,0,1-.34-.52v-3.75a.6.6,0,0,1,.18-.44c1.13-1.12,2.72,0,2.23,2.88"/><path class="cls-1" d="M102.19,160.33c.38,3.35,3.17,3,3.17,3a1.55,1.55,0,0,0,1.5-.68l.22.53a.2.2,0,0,0,.23.12l1.52-.34-.06-.21a5.66,5.66,0,0,1-.24-1.64l-.06-9.37,0,0-1.93.26,0,0,.11,3.77a2.52,2.52,0,0,0-3.35-.15c-1,.81-1.36,2-1.06,4.7m4.16-3.36a.63.63,0,0,1,.18.45v3.74a.55.55,0,0,1-.34.52c-.58.24-1.7.37-2.07-1.82-.49-2.84,1.1-4,2.23-2.89"/><path class="cls-1" d="M115.48,155.46a3.15,3.15,0,0,0-2.54-.35,3.52,3.52,0,0,0-2.59,3.36c-.32,3.67,1.61,4.73,2.6,4.8h1.62a.7.7,0,0,0,.25,0,4.05,4.05,0,0,0,2.29-3.57s.37-2.92-1.63-4.18m-.5,3.62c-.11,2.2-.55,2.7-1.27,2.61a1.37,1.37,0,0,1-1.15-1.07,5.64,5.64,0,0,1-.11-1.61c0-.17,0-.33,0-.5,0-.53.11-1.95,1.2-2h.11c.25,0,1.33,0,1.21,2.56"/><path class="cls-1" d="M99.08,155.46a3.15,3.15,0,0,0-2.54-.35A3.51,3.51,0,0,0,94,158.47c-.33,3.67,1.61,4.73,2.59,4.8h1.63a.7.7,0,0,0,.25,0,4.05,4.05,0,0,0,2.29-3.57s.37-2.92-1.63-4.18m-.51,3.62c-.1,2.2-.54,2.7-1.26,2.61a1.37,1.37,0,0,1-1.15-1.07A6,6,0,0,1,96,159c0-.17,0-.33,0-.5,0-.53.11-1.95,1.2-2h.11c.24,0,1.33,0,1.2,2.56"/><path class="cls-1" d="M119.27,155.25l.94-.31a.14.14,0,0,1,.18.1l.2.9s0,0,.06,0a3.2,3.2,0,0,1,2.82-.87s1,.11,1.11.84a0,0,0,0,0,.07,0c.32-.29,1.87-1.59,3.48-.72,0,0,.76.33.78,1.62V163h-2l0-5.63s0-1.37-1.86-.21a.29.29,0,0,0-.14.25l-.07,5.59h-2l.07-5.68s.07-1.25-1.84-.23a.4.4,0,0,0-.2.34l0,5.57h-2V157.5a7.18,7.18,0,0,0-.25-1.9h0l.09-.06a2.67,2.67,0,0,1,.62-.28"/><path class="cls-2" d="M102.06,143.91A21.44,21.44,0,0,1,98,148.4c-2.67,2-3.09,3.65-3,4.52.82.57,2.07.62,3.72.15a6.28,6.28,0,0,0,3-2.35,13.22,13.22,0,0,0,.36-6.81"/><path class="cls-2" d="M98.68,153.16a7.29,7.29,0,0,1-2,.33,3.17,3.17,0,0,1-1.73-.45,1.2,1.2,0,0,0,0,.2l.3.17h0a4.86,4.86,0,0,0,4.22-.21,4.7,4.7,0,0,0,2.05-2.13,6.22,6.22,0,0,1-2.86,2.08"/><path class="cls-2" d="M94.83,153l-.2-.17c-1.28-1.16-.86-3.45-.86-3.47h.1s-.41,2.26.82,3.39l.13.11a3.12,3.12,0,0,1,.07-.64c.19-.86.87-2.22,3-3.88a21,21,0,0,0,4.09-4.53l0,0s0-.07,0-.11a.37.37,0,0,0-.63-.18c-2.36,2.87-8.38,4-8,7.31h0a3,3,0,0,0,.45,1.32c.08.15.16.3.26.46a.37.37,0,0,0,.22.16,2.8,2.8,0,0,0,.49.39,1.11,1.11,0,0,1,0-.19"/><rect class="cls-3" x="53.83" y="60.83" width="100.39" height="137.11" rx="6.1" ry="6.1"/><rect class="cls-1" x="60.41" y="71.64" width="87.24" height="119.15" rx="1.6" ry="1.6"/><path class="cls-4" d="M149.36,197.71l-89.43.09a5.78,5.78,0,0,1-6.1-5.28l.35-125.4Z"/><path class="cls-3" d="M86.1,112.17H65.63V91.7H86.1Zm-19.73-.73h19v-19h-19Z"/><path class="cls-3" d="M86.1,143.09H65.63V122.61H86.1Zm-19.73-.74h19v-19h-19Z"/><path class="cls-3" d="M86.1,174H65.63V153.53H86.1Zm-19.73-.73h19v-19h-19Z"/><rect class="cls-5" x="97" y="93.38" width="42.17" height="2.1"/><rect class="cls-5" x="97" y="99.84" width="42.17" height="2.1"/><rect class="cls-5" x="97" y="106.29" width="42.17" height="2.1"/><rect class="cls-5" x="97" y="124.98" width="42.17" height="2.1"/><rect class="cls-5" x="97" y="131.43" width="42.17" height="2.1"/><rect class="cls-5" x="97" y="137.89" width="42.17" height="2.1"/><rect class="cls-5" x="97" y="154.67" width="42.17" height="2.1"/><rect class="cls-5" x="97" y="161.12" width="42.17" height="2.1"/><rect class="cls-5" x="97" y="167.57" width="42.17" height="2.1"/><polygon class="cls-6" points="89.39 89.19 74.79 99.92 70.86 95.94 67.11 98.45 74.63 104.37 91.91 89.87 89.39 89.19"/><polygon class="cls-5" points="67.87 97.5 70.52 95.74 74.46 99.74 89.25 88.86 90.36 89.17 74.35 102.61 67.87 97.5"/><path class="cls-5" d="M74.36,102.89l-6.86-5.4,3-2,3.94,4L89.21,88.63l1.61.44Zm-6.12-5.37,6.11,4.81L89.91,89.27l-.61-.17L74.44,100l-4-4Z"/><polygon class="cls-6" points="90.89 123.9 76.28 134.64 72.36 130.65 68.6 133.17 76.12 139.09 93.4 124.59 90.89 123.9"/><polygon class="cls-5" points="69.36 132.22 72.01 130.45 75.95 134.46 90.74 123.58 91.86 123.88 75.84 137.32 69.36 132.22"/><path class="cls-5" d="M75.85,137.6,69,132.21l3-2,3.94,4L90.7,123.34l1.61.44Zm-6.12-5.36,6.11,4.81L91.4,124l-.61-.16L75.93,134.74l-4-4Z"/><polygon class="cls-6" points="90.89 152.39 76.28 163.12 72.36 159.14 68.6 161.65 76.12 167.57 93.4 153.07 90.89 152.39"/><polygon class="cls-5" points="69.36 160.7 72.01 158.94 75.95 162.94 90.74 152.06 91.86 152.37 75.84 165.81 69.36 160.7"/><path class="cls-5" d="M75.85,166.09,69,160.69l3-2,3.94,4L90.7,151.83l1.61.43Zm-6.12-5.37,6.11,4.81L91.4,152.47l-.61-.17L75.93,163.23l-4-4Z"/><path class="cls-5" d="M131.73,57.42H116.81V55.29A11.78,11.78,0,0,0,105,43.51h-.23A11.78,11.78,0,0,0,93,55.29v2.13H78.1a1.4,1.4,0,0,0-1.4,1.4V73.87a1.39,1.39,0,0,0,1.4,1.4h53.63a1.39,1.39,0,0,0,1.4-1.4V58.82A1.4,1.4,0,0,0,131.73,57.42ZM104.92,56a3.94,3.94,0,1,1,3.93-3.93A3.93,3.93,0,0,1,104.92,56Z"/><rect class="cls-5" x="76.7" y="70.46" width="56.43" height="2.36"/><path class="cls-5" d="M132.87,74.48H77a.31.31,0,0,1-.31-.31v-.73h56.43v.78A.26.26,0,0,1,132.87,74.48Z"/></svg>