<svg id="Capa_1" data-name="Capa 1" xmlns="http://www.w3.org/2000/svg" viewBox="0 0 200 200"><defs><style>.cls-1,.cls-2{fill:#fff;}.cls-2{fill-rule:evenodd;}.cls-3{fill:#31b404;}.cls-4{fill:#137f3f;}</style></defs><title>soporte-tecnico</title><path class="cls-1" d="M84.2,162.41l-.18-.52a1.16,1.16,0,0,1,0-.18l-.18-5.18s-.07-2-3.9-1.45a1.43,1.43,0,0,0-.46.13l-.81.3a.23.23,0,0,0-.14.27l.33,1.06a.15.15,0,0,0,.19.08c.46-.17,2.17-.65,2.58-.17a2.16,2.16,0,0,1,.38,1.42s-2.77,0-3.64,1.19a2.53,2.53,0,0,0,.71,3.57s1.94,1,3.12-.43a.07.07,0,0,1,.12,0l.25.57a.19.19,0,0,0,.25.1l1.3-.51a.2.2,0,0,0,.12-.26m-2.61-.87a4,4,0,0,1-.37.17c-1.56.37-1.38-1.23-1.38-1.23.17-1.15,2.19-1,2.19-1l0,1.38a.78.78,0,0,1-.41.68"/><path class="cls-1" d="M91.4,155.53a2.52,2.52,0,0,0-3.35.15v-4s0,0,0,0l-1.89.41s0,0,0,0V161a5.78,5.78,0,0,1-.24,1.65l-.06.2,1.52.34a.2.2,0,0,0,.23-.12l.22-.52a1.57,1.57,0,0,0,1.5.68s2.79.32,3.17-3c.3-2.68-.08-3.89-1.06-4.7m-.87,4.23c-.38,2.2-1.49,2.06-2.07,1.83a.57.57,0,0,1-.34-.52v-3.75a.6.6,0,0,1,.18-.44c1.13-1.12,2.72,0,2.23,2.88"/><path class="cls-1" d="M102.19,160.33c.38,3.35,3.17,3,3.17,3a1.55,1.55,0,0,0,1.5-.68l.22.53a.2.2,0,0,0,.23.12l1.52-.34-.06-.21a5.66,5.66,0,0,1-.24-1.64l-.06-9.37,0,0-1.93.26,0,0,.11,3.77a2.52,2.52,0,0,0-3.35-.15c-1,.81-1.36,2-1.06,4.7m4.16-3.36a.63.63,0,0,1,.18.45v3.74a.55.55,0,0,1-.34.52c-.58.24-1.7.37-2.07-1.82-.49-2.84,1.1-4,2.23-2.89"/><path class="cls-1" d="M115.48,155.46a3.15,3.15,0,0,0-2.54-.35,3.52,3.52,0,0,0-2.59,3.36c-.32,3.67,1.61,4.73,2.6,4.8h1.62a.7.7,0,0,0,.25,0,4.05,4.05,0,0,0,2.29-3.57s.37-2.92-1.63-4.18m-.5,3.62c-.11,2.2-.55,2.7-1.27,2.61a1.37,1.37,0,0,1-1.15-1.07,5.64,5.64,0,0,1-.11-1.61c0-.17,0-.33,0-.5,0-.53.11-1.95,1.2-2h.11c.25,0,1.33,0,1.21,2.56"/><path class="cls-1" d="M99.08,155.46a3.15,3.15,0,0,0-2.54-.35A3.51,3.51,0,0,0,94,158.47c-.33,3.67,1.61,4.73,2.59,4.8h1.63a.7.7,0,0,0,.25,0,4.05,4.05,0,0,0,2.29-3.57s.37-2.92-1.63-4.18m-.51,3.62c-.1,2.2-.54,2.7-1.26,2.61a1.37,1.37,0,0,1-1.15-1.07A6,6,0,0,1,96,159c0-.17,0-.33,0-.5,0-.53.11-1.95,1.2-2h.11c.24,0,1.33,0,1.2,2.56"/><path class="cls-1" d="M119.27,155.25l.94-.31a.14.14,0,0,1,.18.1l.2.9s0,0,.06,0a3.2,3.2,0,0,1,2.82-.87s1,.11,1.11.84a0,0,0,0,0,.07,0c.32-.29,1.87-1.59,3.48-.72,0,0,.76.33.78,1.62V163h-2l0-5.63s0-1.37-1.86-.21a.29.29,0,0,0-.14.25l-.07,5.59h-2l.07-5.68s.07-1.25-1.84-.23a.4.4,0,0,0-.2.34l0,5.57h-2V157.5a7.18,7.18,0,0,0-.25-1.9h0l.09-.06a2.67,2.67,0,0,1,.62-.28"/><path class="cls-2" d="M102.06,143.91A21.44,21.44,0,0,1,98,148.4c-2.67,2-3.09,3.65-3,4.52.82.57,2.07.62,3.72.15a6.28,6.28,0,0,0,3-2.35,13.22,13.22,0,0,0,.36-6.81"/><path class="cls-2" d="M98.68,153.16a7.29,7.29,0,0,1-2,.33,3.17,3.17,0,0,1-1.73-.45,1.2,1.2,0,0,0,0,.2l.3.17h0a4.86,4.86,0,0,0,4.22-.21,4.7,4.7,0,0,0,2.05-2.13,6.22,6.22,0,0,1-2.86,2.08"/><path class="cls-2" d="M94.83,153l-.2-.17c-1.28-1.16-.86-3.45-.86-3.47h.1s-.41,2.26.82,3.39l.13.11a3.12,3.12,0,0,1,.07-.64c.19-.86.87-2.22,3-3.88a21,21,0,0,0,4.09-4.53l0,0s0-.07,0-.11a.37.37,0,0,0-.63-.18c-2.36,2.87-8.38,4-8,7.31h0a3,3,0,0,0,.45,1.32c.08.15.16.3.26.46a.37.37,0,0,0,.22.16,2.8,2.8,0,0,0,.49.39,1.11,1.11,0,0,1,0-.19"/><circle class="cls-3" cx="102.86" cy="95.84" r="38.1"/><path class="cls-4" d="M145.46,83.71h-3c0-20.18-17.6-36.59-39.24-36.59S64,63.53,64,83.71H61c0-21.83,18.94-39.59,42.23-39.59S145.46,61.88,145.46,83.71Z"/><path class="cls-3" d="M167.62,195.7H38.1a60.58,60.58,0,0,1,.35-6.61,62.39,62.39,0,0,1,2-10.8A64.76,64.76,0,0,1,167.62,195.7Z"/><rect class="cls-4" x="57.57" y="83.71" width="9.83" height="24.25" rx="1.84" ry="1.84"/><rect class="cls-4" x="139.04" y="83.71" width="9.83" height="24.25" rx="1.84" ry="1.84"/><rect class="cls-4" x="97.09" y="117.16" width="9.7" height="7.13" rx="1.84" ry="1.84"/><polygon class="cls-4" points="102.86 122.62 61.4 122.62 61.4 101.98 64.54 101.98 64.54 118.98 102.86 118.98 102.86 122.62"/><path class="cls-1" d="M84.67,188.9l-.19-.53a.57.57,0,0,1,0-.18L84.27,183s-.07-2-3.91-1.45a2,2,0,0,0-.46.13l-.81.3a.21.21,0,0,0-.13.27l.33,1.06a.15.15,0,0,0,.19.08c.46-.17,2.16-.64,2.58-.17a2.17,2.17,0,0,1,.38,1.42s-2.77,0-3.64,1.2a2.51,2.51,0,0,0,.7,3.56s2,1,3.13-.43a.06.06,0,0,1,.11,0l.25.56a.21.21,0,0,0,.26.11l1.3-.52a.2.2,0,0,0,.12-.25M82.05,188c-.19.1-.36.17-.36.17-1.56.38-1.39-1.23-1.39-1.23.18-1.15,2.2-1,2.2-1l0,1.38a.79.79,0,0,1-.42.68"/><path class="cls-1" d="M91.87,182a2.45,2.45,0,0,0-2-.54,2.53,2.53,0,0,0-1.41.69v-4l0,0-1.89.41s0,0,0,0v8.89a5.41,5.41,0,0,1-.25,1.65l-.06.2,1.53.34a.21.21,0,0,0,.23-.12l.21-.52a1.57,1.57,0,0,0,1.5.68s2.8.33,3.17-3c.3-2.68-.07-3.89-1-4.7M91,186.24c-.38,2.2-1.5,2.06-2.07,1.83a.57.57,0,0,1-.35-.52v-3.74a.64.64,0,0,1,.19-.45c1.12-1.12,2.72,0,2.23,2.88"/><path class="cls-1" d="M102.66,186.81c.38,3.36,3.17,3,3.17,3a1.57,1.57,0,0,0,1.5-.68l.22.52a.19.19,0,0,0,.22.12l1.53-.34-.06-.2a5.79,5.79,0,0,1-.25-1.65l0-9.37a0,0,0,0,0,0,0l-1.93.25s0,0,0,0l.11,3.77a2.47,2.47,0,0,0-1.41-.69,2.43,2.43,0,0,0-2,.54c-1,.81-1.35,2-1,4.7m4.15-3.35a.63.63,0,0,1,.19.44v3.75a.58.58,0,0,1-.35.52c-.57.23-1.69.37-2.07-1.83-.49-2.84,1.11-4,2.23-2.88"/><path class="cls-1" d="M115.94,181.94a3.12,3.12,0,0,0-2.53-.35,3.51,3.51,0,0,0-2.59,3.36c-.33,3.67,1.6,4.73,2.59,4.8H115a.74.74,0,0,0,.25-.05,4.05,4.05,0,0,0,2.29-3.56s.36-2.93-1.64-4.19m-.5,3.63c-.1,2.19-.54,2.69-1.27,2.6a1.37,1.37,0,0,1-1.14-1.06,6,6,0,0,1-.12-1.62c0-.16,0-.33,0-.5,0-.53.11-2,1.2-2h.11c.24,0,1.33,0,1.2,2.56"/><path class="cls-1" d="M99.54,181.94a3.13,3.13,0,0,0-2.53-.35A3.51,3.51,0,0,0,94.42,185c-.33,3.67,1.6,4.73,2.59,4.8h1.62a.75.75,0,0,0,.26-.05,4,4,0,0,0,2.28-3.56s.37-2.93-1.63-4.19m-.5,3.63c-.11,2.19-.54,2.69-1.27,2.6a1.35,1.35,0,0,1-1.14-1.06,6,6,0,0,1-.12-1.62c0-.16,0-.33,0-.5,0-.53.11-2,1.2-2h.12c.24,0,1.32,0,1.2,2.56"/><path class="cls-1" d="M119.73,181.74l1-.32a.13.13,0,0,1,.17.1l.21.9s0,.05.06,0a3.16,3.16,0,0,1,2.81-.87s1,.11,1.12.83a0,0,0,0,0,.07,0c.31-.29,1.87-1.59,3.48-.71,0,0,.75.32.78,1.62v6.12h-2l0-5.63s0-1.37-1.85-.21a.29.29,0,0,0-.14.25l-.07,5.59h-2l.07-5.68s.06-1.25-1.84-.23a.38.38,0,0,0-.2.34l0,5.57h-2V184a7.19,7.19,0,0,0-.26-1.9h0l.09-.06a2.37,2.37,0,0,1,.61-.27"/><path class="cls-2" d="M102.52,170.39a20.94,20.94,0,0,1-4.07,4.49c-2.68,2.05-3.09,3.65-3.06,4.52.83.57,2.08.62,3.73.15a6.28,6.28,0,0,0,3-2.35,13.23,13.23,0,0,0,.35-6.81"/><path class="cls-2" d="M99.14,179.65a7.57,7.57,0,0,1-2,.32,3.11,3.11,0,0,1-1.73-.45l0,.2a3.07,3.07,0,0,0,.31.17h0a4.84,4.84,0,0,0,4.21-.21,4.65,4.65,0,0,0,2-2.13,6.29,6.29,0,0,1-2.86,2.09"/><path class="cls-2" d="M95.29,179.45l-.2-.16c-1.27-1.17-.86-3.46-.85-3.48l.09,0s-.41,2.25.83,3.38a.69.69,0,0,0,.13.11,2.55,2.55,0,0,1,.07-.64c.18-.85.86-2.22,3-3.88a20.83,20.83,0,0,0,4.1-4.53l0,0s0-.07,0-.11a.36.36,0,0,0-.62-.18c-2.37,2.87-8.38,4-8,7.32h0a3.15,3.15,0,0,0,.44,1.32l.27.45a.32.32,0,0,0,.22.16,3.39,3.39,0,0,0,.49.4l0-.2"/></svg>