<svg id="Capa_1" data-name="Capa 1" xmlns="http://www.w3.org/2000/svg" viewBox="0 0 200 200"><defs><style>.cls-1{fill:#31b404;}</style></defs><title>tiempo-icon</title><path class="cls-1" d="M113.81,169.76a16.9,16.9,0,0,0-8.69-3.32c0-.71.21-38.72,4.06-43.11a12.37,12.37,0,0,1,3.24-2c8.13-4.93,15-22,15.76-32.95H75.82c.72,11,6.5,27.47,14.62,32.41l4.38,2s6.19,6.49,6.19,21.63c0,0,0,22,.14,22.14a21.65,21.65,0,0,0-8.59,3.21c-7.51,4.57-13.43,8.2-13.81,13.73h48.87C127.25,178,124.22,177.39,113.81,169.76Z"/><path class="cls-1" d="M143.55,65.71h5.16v-10H55.29v10h5.16V68.3c0,16.24,6.94,49.84,18.37,58.68-11.43,8.83-18.37,41.33-18.37,57.57v3.27H55.29v10h93.42v-10h-5.16v-3.27c0-16.24-6.94-48.74-18.37-57.57,11.43-8.84,18.37-42.43,18.37-58.68Zm-27.07,58.67L112.2,127l4.28,2.6c10.69,6.5,17.87,39.45,18.82,53.91h-7.68v0H78.74v0h-10c1-14.46,8.13-47.41,18.82-53.91L91.8,127l-4.28-2.6c-10.69-6.5-17.87-39.45-18.82-53.92h66.6C134.35,84.93,127.17,117.88,116.48,124.38Z"/></svg>