<svg id="Capa_1" data-name="Capa 1" xmlns="http://www.w3.org/2000/svg" viewBox="0 0 57.51 57.51"><defs><style>.cls-1,.cls-2{fill:#fff;}.cls-2{fill-rule:evenodd;}</style></defs><title>twitter-icon</title><path class="cls-1" d="M28.76,7A22.17,22.17,0,1,1,6.6,29.12,22.17,22.17,0,0,1,28.76,7m0-1.13a23.3,23.3,0,1,0,23.29,23.3A23.33,23.33,0,0,0,28.76,5.82Z"/><path class="cls-2" d="M15.35,38.14a12.5,12.5,0,0,0,6.07-1,11,11,0,0,0,2.44-1.47,5.78,5.78,0,0,1-5.3-3.73c-.12-.31-.12-.31.22-.29a4.69,4.69,0,0,0,2.14-.14A6.2,6.2,0,0,1,19.54,31a5.88,5.88,0,0,1-3.15-5c0-.26.05-.29.29-.18a5.63,5.63,0,0,0,2.28.62c-.37-.33-.69-.6-1-.89a6,6,0,0,1-.92-6.6c.15-.29.2-.29.4-.06a16.48,16.48,0,0,0,10.16,5.67c.41.08.87.08,1.29.18s.32-.1.28-.31a5.83,5.83,0,0,1,9.75-5.25.64.64,0,0,0,.64.16,11,11,0,0,0,3.08-1.21A.5.5,0,0,0,42.9,18a5.71,5.71,0,0,1-2.45,3.22,12.19,12.19,0,0,0,3.14-.81c0,.13-.09.22-.15.33A12,12,0,0,1,41,23.16a.49.49,0,0,0-.21.46,16.92,16.92,0,0,1-4,11.38,15.68,15.68,0,0,1-9.73,5.46,16.55,16.55,0,0,1-11.59-2.25A.17.17,0,0,0,15.35,38.14Z"/></svg>